<?xml version="1.0" encoding="utf-8"?>

<!DOCTYPE svg PUBLIC "-//W3C//DTD SVG 1.1//EN" "http://www.w3.org/Graphics/SVG/1.1/DTD/svg11.dtd">
<svg version="1.1" id="Layer_1" xmlns="http://www.w3.org/2000/svg" xmlns:xlink="http://www.w3.org/1999/xlink" x="0px" y="0px"
	 viewBox="0 0 733.767 1735.598" enable-background="new 0 0 733.767 1735.598" xml:space="preserve">
<path d="M278.19,67.799c2.755,6.212,6.981,11.722,9.089,18.225c3.746,10.705-17.719,64.784,51.869,112.611
	c40.807,27.562,77.679,60.396,113.862,93.66c8.194,7.21,14.285,16.632,18.267,26.757c8.542,22.547,0.064,140.783-43.651,239.577
	c-22.034,50.983-39.42,103.962-51.976,158.061c-2.697,11.949-5.973,22.137-1.701,50.627
	c25.597,165.514,81.372,147.949,185.755,226.037c41.28,30.987,122.291,84.522,91.233,128.264
	c-24.266,33.455-131.034,52.988-272.026,116.373c-40.646,20.4-54.735,97.707-54.178,128.962
	c-0.579,32.974,6.839,28.726,6.789,78.269c1.324,53.534,30.082,87.3,7.028,184.86c-8.546,32.956-29.224,47.257-60.222,31.109
	c13.177-46.341,25.701-75.344,19.542-125.879c-6.941-58.798-31.02-99.641-50.21-183.707
	c-72.039-318.461-123.272-384.646-64.359-545.94c60.937-167.438-96.865-281.666-107.115-478.273
	c0.432-14.204,9.443-31.21,20.586-40.147c112.255-93.309,151.472-73.694,170.036-197.481C268.557,81.531,274.4,75.108,278.19,67.799
	 M205.201,249.993c-63.095,57.111-70.903,66.599-68.688,79.216c23.962,121.733,23.996,152.684,92.39,188.73
	c-14.298-82.603-30.811-122.967-10.101-183.056c14.693-42.535,35.427-45.979,62.911-45.136c31.469,1.151,45.704,7.072,58.011,34.253
	c27.172,62.21,9.451,110.945-5.172,186.907c2.666,0.932,5.266,2.043,7.932,2.984c69.172-47.705,75.591-104.188,85.522-189.812
	c0.495-10.05-0.234-7.679-149.661-136.416C253.87,208.328,228.95,228.488,205.201,249.993 M312.546,986.18
	c0.009,65.933,0.005,131.867,0.005,197.805c77.781,5.37,119.172-62.684,184.119-83.081
	C435.281,1062.688,373.92,1024.424,312.546,986.18z"/>
</svg>
