<?xml version="1.0" encoding="utf-8"?>
<!DOCTYPE svg PUBLIC "-//W3C//DTD SVG 1.1//EN" "http://www.w3.org/Graphics/SVG/1.1/DTD/svg11.dtd">
<svg version="1.1" id="Layer_1" xmlns="http://www.w3.org/2000/svg" xmlns:xlink="http://www.w3.org/1999/xlink" x="0px" y="0px"
	 viewBox="80.6064 451.2705 1758.2249 1410.1071" enable-background="new 80.6064 451.2705 1758.2249 1410.1071"
	 xml:space="preserve">
<g>
	<g id="_x23_ffffffff">
		<path fill="#FFFFFF" stroke="#FFFFFF" stroke-width="0.0938" d="M384.67,558.39c34.75,0.12,69.5-0.28,104.24,0.2
			c-4.18,5.19-9.36,9.46-13.6,14.6c-4.65,5.6-10.36,10.59-13.33,17.37c-17.44,15.37-34.53,31.12-51.38,47.13
			c-4.05-19.77-8.05-39.63-14.63-58.75C393.29,571.6,390.43,563.92,384.67,558.39z"/>
		<path fill="#FFFFFF" stroke="#FFFFFF" stroke-width="0.0938" d="M842.47,624.72c4.95-0.99,10.03-0.33,15.01,0.1
			c8.56,0.98,17.1,2.3,25.53,4.13c2.58,0.63,5.82,1.9,6.23,4.93c-0.15,4.19-3.29,7.42-5.89,10.41
			c-7.04,7.38-15.04,13.77-23.19,19.88c-5.58,3.85-11.94,8.27-19.1,7.05c-5.33-0.96-10.58-2.58-16.04-2.59
			c-5.69-0.03-11.87-0.45-16.54-4.08c-2.77-2.02-4.04-6.1-2.12-9.12c2.37-4.29,7.49-5.35,11.42-7.64
			c8.0099-4.71,14.39-11.68,19.95-19.03C839.03,627.14,840.17,625,842.47,624.72 M832.63,650.6c-2.66,1.9301-5.75,3.73-7.23,6.79
			c-0.88,2.25,2.0099,2.98,3.67,3.12c12.23,1.33,23.97-4.81,32.56-13.1c-2.75-2.44-5.72-4.62-8.52-7
			C845.8,642.7,839.06,646.51,832.63,650.6z"/>
		<path fill="#FFFFFF" stroke="#FFFFFF" stroke-width="0.0938" d="M791.87,737.86c17.07-1.26,34.12-2.65,51.19-3.95
			c-9.28,8.8-13.01,21.77-14.34,34.13c-1.73,13.52,2.17,26.93,6.89,39.46c4.78,12.29,10.74,24.12,17.56,35.41
			c0.51,1.03,1.41,1.94,1.57,3.14c-18.95,39.3-32.98,81.01-41.5,123.81c-4.74,21.7-5,44.16-2.32,66.16
			c4.56,37.0499,15.75,73.0699,30.69,107.2c-1.08,3.4401-4.73,5.1801-7.71,6.78c-11.25,5.1-23.65,6.76-35.79,8.41
			c-32.58,3.98-65.34,6.4199-98.09,8.52c-8.88-0.3101-16.73-6.8201-20.57-14.5801c-3.31-7.01-8.08-13.1699-12.66-19.37
			c-12.91-16.89-26.6-33.16-40.14-49.5499c-8.86-10.9801-18.32-21.53-25.98-33.41c-8.11-12.62-13.61-27.03-15.16-42
			c-1.59-12.73,0.38-25.46,1.59-38.12c2.56-30.57,4.55-61.34,2.47-92c-1.42-11.88-2.05-24.38,2.56-35.69
			c4.05-10.45,12.56-18.63,22.37-23.7401c11.93-6.17,23.99-12.08,36.06-17.96c4.29,8.41,7.67,17.27,10.64,26.23
			c2.02,5.83,3.16,12.12,6.82,17.25c7.34,10.7,18.97,18.25,31.51,21.34c5.08,0.94,11.92,1.62,15.15-3.4
			c5.44-8.91,8.45-19.03,12.92-28.42c6.6801-14.51,15.02-29.39,28.95-38.07c9.6-5.77,16.93-14.66,22.45-24.28
			C784.93,760.78,789.08,749.46,791.87,737.86 M772.75,893.78c-6.76,10.85-14.83,21.33-25.77,28.25
			c-9.34,6.12-21.13,8.43-32.04,5.86c-12.11-2.55-21.9-11.12-33.99-13.75c-6.29-1.51-12.95-0.59-18.85,1.93
			c-9.39,3.95-17.47,10.31-25.29,16.7c-13.69,11.01-22.76,27.19-26.3,44.28c-1.62,8.48-2.43,17.6,0.53,25.88
			c1.17,3.64,4.82,7.32,8.95,5.68c8.43-3.25,17.02-6.32,26.03-7.52c35.26-4.96,71.02,4.83,106.16-1.98
			c8.63-1.85,17.98-5.01,23.16-12.67c3.0099-4.18,3.08-9.49,4.28-14.31c1.64-6.48,3.91-12.78,6.31-19.02
			c7.25-18.65,15.75-36.78,24.31-54.87c3.19-7.29,7.3-14.23,9.78-21.8c-6.87-2.9-14.52-4.74-21.93-2.93
			C787.08,876.02,778.67,884.59,772.75,893.78z"/>
		<path fill="#FFFFFF" stroke="#FFFFFF" stroke-width="0.0938" d="M863.27,859.23c13.8,14.68,27.69,29.32,42.51,42.98
			c11.83,11.08,25.59,20.14,40.59,26.33c-5.16,24.09-10.16,48.22-15.19,72.35c-4.54,22.95-10.32,45.75-12.22,69.14
			c-1.53,19.26-2.72,38.7-0.86,57.99c-0.4,1.97-2.31,3.0599-3.92,3.96c-4.73,2.39-9.94,3.5801-15.08,4.71
			c-6.61,1.29-13.29,2.66-20.06,2.4c-7.56-0.2-15.16,0.35-22.7-0.3199c-9.77-19.5601-18.22-39.8301-24.48-60.79
			c-7.89-26.75-13.13-55.26-7.77-83.02c4-23.72,8.5099-47.37,14.09-70.78c2.94-12.07,6.01-24.14,10.28-35.82
			C851.94,877.94,859.41,869.49,863.27,859.23 M876.18,896.19c1.05,6.5,6.05,11.78,6.48,18.42c-3.29,3.76-9.02,3.19-13.54,4.22
			c-4.27,0.87-10.49,1.19-11.79,6.29c1.3,1.36,2.74,2.69,4.64,3.18c7.79,2.39,16.01,0.79,23.9-0.21
			c11.59-1.4301,23.61-0.23,34.36,4.49c1.61-8.95-6.1-15.61-12.82-19.96c-8.7-5.22-16.95-11.14-25.73-16.23
			C880.1,895.59,877.06,893.71,876.18,896.19 M916.62,961.57c-14.21,15.15-28.67,30.07-43.75,44.35
			c-7.46,7.09-14.27,15.24-18.12,24.9c-1.33,3.52-2.45,7.4-1.55,11.17c0.61,2.59,3.05,4.5601,5.76,4.37
			c6.48-0.63,11.6-5.0699,16.74-8.63c4.07-2.5499,8.72-5.96,13.77-4.26c0.76,2.1,1.11,4.36,0.6,6.5901
			c-1.54,8.75-5.79,16.6799-9.49,24.6499c-1.84,4.24-3.77,9.4601-1.07,13.77c5.19,2.01,9.78-2.41,12.96-5.99
			c5.86-6.8199,9.44-15.22,12.44-23.61c4.6-13.22,5.86-27.24,8.96-40.83c4.22-20.87,9.7-41.51,17.17-61.47
			C925.64,950.96,921.58,956.73,916.62,961.57z"/>
		<path fill="#FFFFFF" stroke="#FFFFFF" stroke-width="0.0938" d="M955.6,946.91c2.04-7.17,4.26-14.31,7.33-21.11
			c14.4,0.9,28.81,1.77,43.22,2.67c-11.57,20.78-23.39,41.66-38.66,59.98c-1.13,1.76-2.95,3.81-2.04,6.04
			c2.24,1.56,5.11,0.33,7.48-0.34c6.5-2.36,12.52-5.9901,17.88-10.33c2.67-2.09,4.74-5.11,8.16-6.06c2.95,3.44,1.3,8.29,0.57,12.25
			c-4.1,15.09-12.53,28.96-23.71,39.86c-6.47,6.25-14.56,10.62-20.62,17.33c-2.18,2.51-4.7,5.27-4.72,8.8
			c0.74,2.88,4.21,3.08,6.63,2.8c7.64-0.9,14.49-4.8101,20.92-8.79c2.11-1.33,4.37-2.4401,6.84-2.92
			c0.43,2.92-1.89,5.1801-3.43,7.38c-6.96,8.5901-14.9,16.38-23.45,23.37c-2.63,2.24-6.02,3.92-7.62,7.13
			c-1.31,2.86,1.76,4.9301,4.09,5.7001c7.15,2.49,14.98,2.5199,22.42,1.5199c3.33-0.46,6.99-2.9099,10.08-0.3899
			c5.4301,4.1799,5.07,12.96,0.63,17.75c-3.64,4.22-9.17,6.1-14.47,7.1599c-13.3,2.7201-26.5,5.9301-39.91,8.0601
			c1.02-10.91,0.95-21.89,1.5601-32.8301C937.01,1043.1,942.92,994.2,955.6,946.91z"/>
		<path fill="#FFFFFF" stroke="#FFFFFF" stroke-width="0.0938" d="M971.74,1248.6801c11.1-8.51,22.34-16.8401,33.94-24.65
			c6.17,9.4199,11.37,19.75,13.43,30.9099c1.41,7.67,0.69,16.3-4.36,22.5701c-2.86,3.91-8.07,6.5-8.83,11.64
			c5.27-0.1801,9.49-3.8101,13.46-6.89c5.77-4.88,10.6801-11.0701,13-18.34c1.22-4.03,3.9399-7.89,8.05-9.3101
			c5.5-1.87,11.3899-0.4,16.7599,1.24c11.3101,3.76,21.7301,9.66,32.38,14.9301c7.4,3.9399,15.4601,7.0499,21.64,12.9
			c10.4701,9.5299,22.7001,16.7799,34.14,25.0399c13.1801,9.78,25.16,21.78,32.65,36.5601c1.8,3.7899,3.54,7.72,4.11,11.9299
			c-20.38-28.09-51.08-50.2-86.02-54.88c-15.35-2.11-31.09-0.7699-46,3.3301c-27.59,8.0699-54.78,17.52-82.64,24.65
			c-20.75,5.62-42.43,1.74-63.49,4.7999c-21.53,2.91-42.1,10.1801-62.85,16.28c-19.86,6-39.79,11.86-59.2,19.21
			c-4.45,1.7001-8.85,3.55-13.0699,5.74c1.27-8.9299,2.14-17.9099,3.5-26.8199c17.3-13.3301,35.1299-26.01,53.78-37.41
			c15.23-9.16,30.93-17.85,47.84-23.51c8.39-2.9,17.25-3.96,25.91-5.75c13.19-2.6899,26.61-5.24,38.85-11.08
			C950.97,1266,961.1,1256.86,971.74,1248.6801z"/>
	</g>
	<g id="_x23_fcbfa3ff">
		<path fill="#FCBFA3" stroke="#FCBFA3" stroke-width="0.0938" d="M397.4,536.54c41.69-32.09,87.44-58.37,132.71-84.92
			c14.6-0.37,29.23-0.05,43.85-0.16c22.77,0.12,45.54-0.28,68.31,0.27c-23.83,3.09-45.21,15.91-63.14,31.34
			c-5.96,5.74-12.63,10.68-18.31,16.71c-11.2,11.63-20.74,25.46-24.74,41.29c-27.27,12.28-51.17,30.58-74.1,49.49
			c2.97-6.78,8.68-11.77,13.33-17.37c4.24-5.14,9.42-9.41,13.6-14.6c-34.74-0.48-69.49-0.08-104.24-0.2c-1.36-1.12-2.84-2.1-4.34-3
			c7.03-4.07,14.31-7.7,21.79-10.89c-4.41-0.62-8.86-0.77-13.31-0.73C391.29,540.93,394.48,538.87,397.4,536.54z"/>
		<path fill="#FCBFA3" stroke="#FCBFA3" stroke-width="0.0938" d="M673.59,452c1.46-0.34,2.94-0.51,4.45-0.51
			c15.97,0.08,31.93-0.18,47.9,0.01c21.34,1.92,42.61,4.82,64.02,5.91c25.6,0.41,51.21-0.05,76.82,0.27
			c-3.16,4.92-8.77,7.21-13.15,10.82c-16.65,11.45-33.76,22.25-51.02,32.75c-6.84-7.27-14.45-13.85-22.83-19.3
			c-15.47-9.95-32.9-16.43-50.64-21.04C710.97,456.12,692.28,453.66,673.59,452z"/>
		<path fill="#FCBFA3" stroke="#FCBFA3" stroke-width="0.0938" d="M1330.77,454.72c1.16-0.97,2.6-1.46,4.15-1.36
			c20.0699-0.18,40.1599,0.13,60.24-0.13c-26.5,19.76-52.5901,40.08-79,59.98c-12.9601,10.3-26.76,19.58-39.2201,30.49
			c-19.4199,0.07-38.84,0.03-58.2599,0.03c1.75-1.79,3.5399-3.54,5.36-5.27l-0.63-0.54c4.52-4.68,10.15-8.21,15.21-12.31
			C1269.38,502.03,1300.09,478.41,1330.77,454.72z"/>
		<path fill="#FCBFA3" stroke="#FCBFA3" stroke-width="0.0938" d="M280.37,464.35c1-0.83,2.33-0.77,3.56-0.81
			c43.99-0.06,87.99,0.05,131.98-0.04c-14.14,10.4-28.83,20.04-43.14,30.22c-22.68,15.5-44.99,31.6-67.79,46.88
			c-27.32,0.25-54.65,0.01-81.98,0.09c-17.33-0.13-34.67,0.28-51.99-0.18C207.33,514.95,243.98,489.83,280.37,464.35z"/>
		<path fill="#FCBFA3" stroke="#FCBFA3" stroke-width="0.0938" d="M990.62,554.84c7.76-6,14.54-13.11,21.94-19.53
			c0.88,2.23,3.57,1.17,5.42,1.43c5.83,0.25,11.78-0.77,17.52,0.64c-29.69,25.06-59.47,50.27-92.51,70.89
			c-4.81-0.6-9.59-1.36-14.38-2.05c16.1-11.83,31.81-24.28,46.52-37.8199C980.36,563.95,985.58,559.5,990.62,554.84z"/>
		<path fill="#FCBFA3" stroke="#FCBFA3" stroke-width="0.0938" d="M251.83,657.86c18.9-18.47,38.62-36.1,58.57-53.43
			c0.19,0.32,0.58,0.96,0.77,1.28c8.42,1.24,17.08,0.07,25.58,0.65c-1.64,7.44-2.88,14.97-3.67,22.55
			c-3.27,1.81-6.43,3.79-9.39,6.07c2.94,0.19,5.88,0.31,8.83,0.39c-0.74,12.22-0.6,24.51,0.66,36.69c-0.09,0.53-0.28,1.58-0.38,2.11
			c-11.26-0.81-22.55-0.18-33.82-0.44c-2.77,0.11-5.8-0.31-8.31,1.08c-14.5,12.07-29.4,23.7-43.91,35.76
			c-7.42,5.25-13.89,11.67-21.22,17.04c-21.54,17.75-43.36,35.17-64.31,53.61c-26.08,27.2401-52.12,54.53-77.81,82.14
			c-2.36,2.21-1.66,5.72-1.78,8.63c0.34,13.38-0.46,26.79,0.41,40.14l-0.88-0.06c-0.65-1.6-0.38-3.35-0.45-5.01
			c0.07-12.68,0.03-25.37,0.04-38.05c1.26-16.2,0.23-32.48,0.65-48.71c12.24-12.08,24.41-24.31,35.2-37.73
			c5.6-7,11.14-14.15,15.36-22.09c-16.67-0.26-33.36,0.31-50.02-0.21l-0.57-0.5c-0.12-11.04,0.05-22.09-0.06-33.14
			c29.21,0.16,58.43,0,87.64,0.1c3-0.03,6.46,0.51,8.73-1.94c18.29-15.0099,35.86-30.88,52.96-47.22
			C238.05,671.36,244.4,664.03,251.83,657.86z"/>
		<path fill="#FCBFA3" stroke="#FCBFA3" stroke-width="0.0938" d="M1622.9399,661.57c4.4801-3.01,8.9901-5.96,13.4601-8.99
			c10.5699,0.55,21.24-0.54,31.77,0.58c-2.3201,3.1201-6,4.8701-8.2101,8.11c1.6901,0.18,3.49,0.4,5.23,0.63
			c-5.3899,0.55-10.7799-0.31-16.1699-0.16C1640.3199,661.71,1631.62,662,1622.9399,661.57z"/>
		<path fill="#FCBFA3" stroke="#FCBFA3" stroke-width="0.0938" d="M1352.1899,715.65c8.2401-3.01,16.4301-6.27,24.8-8.9
			c25.67-0.25,51.36,0,77.04-0.13c1.49-0.16,2.9099,0.38,4.24,1.08c-25.4401,17.16-51.09,34.01-76.5701,51.11
			c-2.38,1.64-4.7999,3.47-7.7799,3.71c-2.9401-9.72-6.28-19.35-10.8201-28.45c2.16-1.87,4.3201-3.75,6.4601-5.65
			c-3.13,0.03-6.2401,0.06-9.3501,0.08C1357.76,724.08,1355.21,719.7,1352.1899,715.65z"/>
		<path fill="#FCBFA3" stroke="#FCBFA3" stroke-width="0.0938" d="M81.51,935.43l0.18,1.08c0.16,18.19-0.35,36.4,0.27,54.58
			c13.63-5.7401,26.93-12.3,40.43-18.34c6.81-0.85,13.75-0.41,20.6-0.3c-4.86,6.79-9.68,13.62-14.75,20.27
			c2.91,0.27,5.82,0.51,8.74,0.5c18.35-0.0699,36.69,0.02,55.03-0.04c9.33-0.43,18.71-0.8,28.03,0.19
			c-7.82,6.54-16.38,12.1-24.49,18.26c-11.97,9.02-24.2,17.7-36.09,26.83c-6.23,4.02-11.9,8.8-17.94,13.0701
			c-19.18,14.1799-38.42,28.28-57.65,42.39c-3.12,1.95-2.05,5.9399-2.22,9.0299c0.42,10.02-0.81,20.13,0.84,30.0701
			c-0.17,2.6899-0.85,5.33-0.84,8.0499c0.07,20.3101,0.02,40.62,0.03,60.92c0.22,11.98-0.42,23.99,0.36,35.95
			c8.11-6.1899,15.29-13.48,23.36-19.73c7.16-6.4399,14.63-12.5399,21.85-18.9199c21.29-18.79,43.15-36.89,64.35-55.77
			c1.67-1.72,4.27-1.05,6.4-1.22c8.61,0.21,17.23-0.28,25.83,0.2699c-6.89,6.01-13.86,11.92-20.74,17.9301
			c4.04,0.02,8.08,0.02,12.12,0.04c-8.24,8.36-17.14,16.12-25.03,24.85c-5.42,5.91-11.13,11.71-15.09,18.74
			c-1.29,2.41-2.85,5.91-0.28,8.0599c1.24,1.6201,3.43,1.26,5.22,1.38c28.66,0,57.33,0,85.99,0c3.73,0.1001,7.65-0.6799,11.17,0.92
			c-28.3,23.96-58.51,45.52-88.63,67.09c-8.57,6.4-17.45,12.38-25.77,19.12c-7.98,5.54-15.55,11.63-22.97,17.89
			c-6.61,4.7001-12.55,10.2201-18.58,15.61c-7.98,6.13-14.82,13.54-22.34,20.2001c8.75,0.26,17.5-0.0701,26.26,0.16
			c-0.4,1.5-2.07,1.73-3.28,2.2599c-12.95,4.6101-26.73,8.6001-40.6,7.27c0.17-40.36,0.05-80.73,0.06-121.1
			c-1.02-10.63-0.43-21.3199-0.58-31.98c-0.06-32.65,0.08-65.3101,0-97.96c0.08-7.03-0.37-14.0801,0.55-21.0701
			c0.12-31.66-0.02-63.33,0.07-95c-1.21-16.59-0.39-33.27-0.61-49.9C81.03,943.2,79.97,939.12,81.51,935.43z"/>
		<path fill="#FCBFA3" stroke="#FCBFA3" stroke-width="0.0938" d="M1738.16,1025.63c11.97-9.16,23.97-18.28,35.98-27.4
			c6.5699,0.89,13.28-0.53,19.84,0.69c-9.9199,10.51-21.09,19.75-31.95,29.2501c0.45,0.4099,1.34,1.23,1.7899,1.6499
			c-1.8999,0.25-3.6799-0.6-5.4399-1.0499C1751.78,1026.84,1744.8101,1027.16,1738.16,1025.63z"/>
		<path fill="#FCBFA3" stroke="#FCBFA3" stroke-width="0.0938" d="M1667.02,1253.59c56.98-43.9,114.33-87.3099,171.59-130.83
			c0.03,31.23,0.02,62.46,0.02,93.6899c-31.03,0.17-62.0699-0.1699-93.09,0.17c-4.25,5.67-9.5901,10.37-14.6001,15.33
			c-7.0399,7.28-14.9399,13.65-22.5099,20.3501c-1.9901,1.9399-4.9901,1.1899-7.4601,1.3899
			C1689.65,1253.49,1678.33,1253.9,1667.02,1253.59z"/>
		<path fill="#FCBFA3" stroke="#FCBFA3" stroke-width="0.0938" d="M1820.1,1264.15c5.52-5.6801,11.0701-11.34,16.54-17.0701
			c0.5,0.3301,1.5,0.9801,2.01,1.3101c-0.09,7.4,0.12,14.8099-0.13,22.22c-22.27,16.35-44.48,32.79-66.77,49.13
			c-8.1801,5.97-16.1899,12.2-24.5601,17.91c8.55,1.08,17.1901,0.4,25.79,0.63c13.3301-0.01,26.67-0.01,40.02-0.12
			c4.36,0.2999,8.8-0.4701,13.13,0.47c-0.34,0.27-1.03,0.8099-1.37,1.09c-4.1801-1.1699-8.49-0.8199-12.74-0.59
			c-25.37-0.95-50.79,0.46-76.15-0.77c0.7-0.7999,1.4-1.6,2.2-2.2999c14-10.9401,28.8301-20.8101,44.0801-29.9401
			c3.2999-1.83,6.36-4.15,8.59-7.24C1799.89,1286.77,1810.22,1275.65,1820.1,1264.15z"/>
		<path fill="#FCBFA3" stroke="#FCBFA3" stroke-width="0.0938" d="M260.93,1332.79c17.96-4.89,36.74-3.13,55.05-1.8501
			c13.7,1.55,27.49,1.8401,41.23,2.77c-28.18,20.29-57.17,40.5-79.19,67.75c1.85,0.66,3.81,0.9601,5.77,1.1901
			c-5.28,4.26-11.35,7.38-16.75,11.48c-23.93,16.76-48.23,32.99-72.26,49.62c-16.29,11.23-32.86,22.09-48.88,33.7
			c10.01,0.6001,20.05,0.0601,30.08,0.24c22.01,0,44.02,0,66.03,0c7.83-0.2699,15.74,0.52,23.52-0.3799
			c7.32-4.4701,14.11-9.8201,21.36-14.42c1.49-1.03,3.3-1.22,5.07-1.1801c24.67,0.04,49.35,0.01,74.03,0.02
			c10.33,0.1901,20.68-0.41,30.99,0.38c-6.6,10.64-14.14,20.6901-20.41,31.55c-1.04,1.5599-1.28,3.45-1.46,5.2899
			c-6.46,6.99-14.44,12.29-21.21,18.9401c-20.05,17.5699-40.2,35.04-60.05,52.83c-6.47,4.8101-12.02,10.6901-18.2,15.8401
			c-7.21,6.5099-14.81,12.5699-21.97,19.1399c-8.26,6.6801-15.73,14.26-24.03,20.89c-5.77,5.66-12.46,10.35-17.8,16.4401
			c18.04,0.9399,36.08-0.9401,54.13-0.12c6.35,0.45,12.7-0.5701,19.06,0.01c5.03,0.49,10.08-0.41,15.12,0.1799
			c-15.75,9.8101-30.91,20.54-46.47,30.64c-35.77,23.89-71.63,47.66-107.43,71.5c-4.77,3.03-9.18,6.8-14.3,9.2
			c-16.85,0.2401-33.72,0.04-50.58,0.1001c-0.07-17.86,0.03-35.7101-0.07-53.5701c-0.39-2.7899,2.85-3.71,4.59-5.11
			c41.88-27.76,83.66-55.67,125.5-83.5c1.42-0.77,2.47-2.01,2.77-3.6c-20.02-0.51-40.06-0.08-60.09-0.21
			c-2.51-0.05-5.11-0.12-7.43,0.99c-20.11,7.8999-39.41,17.8199-57.72,29.27c-2.47,1.49-4.74,3.3899-7.54,4.2999
			c-0.09-74.75,0.01-149.5-0.05-224.24c0.1-2.17,2.72-2.97,4.05-4.35c32.05-25.29,63.96-50.77,95.38-76.84
			c0.81-0.75,1.58-1.53,2.34-2.3c-7.63-1.17-15.38-0.35-23.07-0.58c-11.48-0.2201-22.99,0.3999-34.45-0.26
			c17.78-0.9701,35.63-0.0901,53.44-0.4501c10.95,0.5701,21.92,0.37,32.88,0.4501c2.47-0.1001,5.04,0.24,7.44-0.4301
			C231.89,1344.84,245.66,1336.6,260.93,1332.79z"/>
		<path fill="#FCBFA3" stroke="#FCBFA3" stroke-width="0.0938" d="M1728.65,1416.9c6.34-4.36,11.91-9.6801,17.85-14.53
			c0.33,0.26,0.99,0.79,1.3199,1.05c4.2401,0.3199,8.52,0.1,12.78,0.01c0.1801,0.96,0.03,1.85-0.47,2.6899
			c-4.61,6.88-10.3199,13.08-14.17,20.4401c7.2101,0.0399,14.4601,0.2999,21.67-0.0701c15.46-6.67,30.59-14.11,45.99-20.92
			c2.73-1.1,5.2-3.2699,8.3-3.1399c5.5599,0.0299,11.12-0.04,16.6899,0.0499c0.0701,17.73-0.02,35.47,0.03,53.21
			c-27.1801,12.92-54.79,24.92-81.9501,37.89c9.7101,1.27,19.53,0.3201,29.3,0.61c17.55,0.0801,35.11-0.1799,52.67,0.16
			c-0.02,8.24-0.04,16.49-0.02,24.74c0.35,2.64-2.26,4.0801-3.7001,5.87c-36.1699,38.13-72.2799,76.3-108.3999,114.48
			c-21.0701,18.75-43.13,36.3401-64.9301,54.2201c-24.34,20.02-48.97,39.6799-73.48,59.49c-3.2,2.41-6.03,5.37-9.51,7.37
			c-6.4301,1.39-13.11,0.4299-19.63,0.74c-28.99,0.1799-57.97,0.02-86.95,0.0699c-9.0701-0.1799-18.17,0.36-27.2201-0.2899
			c3.7301-4.73,9.1001-7.75,13.5601-11.73c6.5599-5.4501,13.4-10.55,19.83-16.15c4.13-2.91,8.1001-6.05,11.62-9.6901
			c-23.46-0.11-46.9199-0.1699-70.37,0.03c-10.51,11.21-21.26,22.1801-31.87,33.29c-23.1-24.4-46.52-48.77-73.27-69.23
			c3.7301-3.4601,6.9401-8.9901,12.65-8.8701c17.67-0.08,35.35,0,53.02-0.0299c10.0701,0.15,20.17-0.3301,30.24,0.27
			c-0.98,1.3999-2.09,2.75-3.63,3.58c-12.34,7.14-24.76,14.1899-36.75,21.87c12.36,0.47,24.75,0.02,37.12,0.17
			c26.7101-0.01,53.41,0,80.12,0c3.55,0.1399,6.13-2.7101,9.0801-4.25c9.48-5.5701,19.0199-11.04,28.47-16.67
			c12.87-7.8101,26.13-14.98,38.84-23.0601c22.5701-13.0599,45.03-26.33,67.5-39.5699c27.22-16.4301,54.91-32.0699,82.02-48.67
			c-1.3-0.3999-2.64-0.7799-3.97-0.7799c-23.35-1.28-46.64-3.75-70.03-4.27c-18.63-1.12-37.3101-0.1901-55.95-0.5901
			c3.25-6.6499,8.0599-12.35,12.5399-18.1899c5.4301-6.8199,11.14-13.4301,17.35-19.55c22.63-23.36,47.04-45.08,67.5601-70.3899
			c2.89-3.75,5.3101-8.05,9.47-10.5901C1702.85,1437.6,1715.7,1427.1899,1728.65,1416.9z"/>
		<path fill="#FCBFA3" stroke="#FCBFA3" stroke-width="0.0938" d="M480.25,1606.9c4.48,10.66,10.12,20.7899,16.42,30.47
			c18.78,28.52,42.73,53.09,66.36,77.5601c-1.64-1.15-3.8701-3.79-5.8-1.6801c-13.86,10.85-28.04,21.27-41.74,32.3199
			c-24.66,19.05-49.71,37.64-74.02,57.14c-0.89-1.73-2.86-1.22-4.4-1.1c-14.67,1.64-29.03,5.4501-42.83,10.65
			c-2.9,1.0699-5.8,2.79-9.01,2.4399c-1.48-1.34,0.42-3.25,0.91-4.63c11.92-20.75,25.02-40.87,36.15-62.0699
			c-4.49-12.12-9.44-24.0699-14.26-36.0601c-0.65-1.9299-2.7-4.6499-0.13-6.0199c7.43-5.63,15.11-10.92,22.75-16.27
			c6.65-4.74,13.85-8.6801,20.26-13.76c6.75-4.9,13.42-9.91,20.28-14.65c6.61-5.05,13.75-9.51,19.51-15.55
			c1.2-1.08,1-2.75,1.03-4.1699c-5.33-2.13-11.18-1.8-16.8-1.8301c-19.67-0.0599-39.36,1.26-59.02,0.4501
			c8.92-8.9501,19.33-16.36,28.3-25.29c8.93-0.4,17.88,0.0801,26.81-0.1699c3.58-0.0601,6.79-1.8,9.97-3.2401
			C480.76,1609.91,480.52,1608.39,480.25,1606.9z"/>
		<path fill="#FCBFA3" stroke="#FCBFA3" stroke-width="0.0938" d="M806.63,1686.72c10.09,1,20.23,0.6901,30.36,0.98
			c43.35,1.41,86.74,0.5801,130.11,0.9501c-2.18,3.01-5.37,5-8.37,7.11c-15.69,11.53-31.43,23.03-47.02,34.6899
			c3.08,0.2001,6.18,0.3201,9.28,0.37c27.01-0.13,54.02-0.0099,81.03-0.08c3.8,0.03,7.74-0.48,11.37,0.97
			c-14.4,13.2001-31.89,22.4401-49.41,30.8101c-5.18,2.51-10.85,3.74-16.09,6.1c16.36,0.27,32.73,0.0699,49.1,0.15
			c10.47,0.23,20.97-0.47,31.41,0.36c-2.7101,2.86-6.07,4.92-9.4,6.97c-14.08,9.1801-28.3,18.13-42.53,27.0701
			c-5.64,2.9199-10.5099,7.0399-16.02,10.1599c-8.57,5.3101-16.95,10.9301-25.11,16.86c-2.83,2.14-6.48,3.63-8,7.0701
			c16.19,0.33,32.4-0.0701,48.59,0.21l0.95,0.5701c-10.36,7.0599-20.03,15.1699-30.13,22.5399
			c-24.57,0.4801-49.18,0.0701-73.77,0.2001c-12.75-0.36-25.55,0.3099-38.27-0.3301c6.15-0.6899,12.38-0.34,18.53-1.1799
			c5.73-0.17,11.46-0.0801,17.2-0.2001c-1.55-7.5-3.18-14.99-4.92-22.4399c9.09-6.59,18.46-12.77,27.82-18.97
			c-10.84-0.88-21.7401-0.02-32.6-0.4501c-5-19.1899-10.6-38.24-17.32-56.9099c9.73-6.4601,18.76-13.92,28.29-20.67
			c6.2-4.83,12.7-9.24,18.85-14.14c7.16-5.4,14.98-10.13,21.27-16.5599c-10.79-1.66-21.68-2.52-32.48-4.03
			c-18.96-1.97-37.7-5.5701-56.63-7.6901c-3.15-0.6-5.65,1.6801-8.16,3.17C811.9,1695.83,809.27,1691.26,806.63,1686.72z"/>
		<path fill="#FCBFA3" stroke="#FCBFA3" stroke-width="0.0938" d="M1685.11,1722.1899c8.2001-6.8799,16.05-14.2,24.67-20.5499
			c33.0599,0.22,66.13,0.03,99.2,0.09c9.92,0.23,19.91-0.45,29.8,0.38c-0.13,1.36-0.22,2.75-0.3,4.16
			c-55.35,45.83-103.98,99.21-160.25,143.98c-4.5,3.41-8.64,7.39-13.51,10.28c-13.53,0.61-27.13,0.0699-40.6899,0.26
			c-31.01-0.11-62.03,0.21-93.03-0.17c12.12-10.0699,24.5699-19.77,36.47-30.13C1607.74,1795.55,1645.25,1757.59,1685.11,1722.1899z
			"/>
		<path fill="#FCBFA3" stroke="#FCBFA3" stroke-width="0.0938" d="M612.18,1763.12c34.72,33.05,70.16,65.33,106.01,97.14
			c23.19,0.13,46.38-0.4,69.57-0.52l-0.02,0.75c-14.56,0.6-29.12-0.14-43.68,0.03c-62.34,0.4-124.69,0.35-187.03,0.14
			c4.41-4.7101,10.4399-7.4701,14.92-12.0601c-6.47-0.0499-12.98-0.2999-19.43,0.12c-5.5,3.62-10.34,8.24-15.87,11.8101
			c-21.87,0.58-43.8,0.09-65.69,0.26c-22.72-0.1001-45.45,0.2-68.17-0.1801c2.81-3.52,7.03-5.4399,10.43-8.29
			c4.61-3.7999,9.55-7.1799,14.14-11c26.89,0.05,53.79-0.0099,80.68,0.03c5.08,0.1901,8.22-4.61,12.1-7.16
			c10.4-7.6,20.27-15.8899,30.73-23.4099c6.89-5.5,13.84-10.9301,20.98-16.1C585.04,1783.83,599.12,1774.11,612.18,1763.12z"/>
		<path fill="#FCBFA3" stroke="#FCBFA3" stroke-width="0.0938" d="M154.02,1785.12c2.46-2.01,4.34-5.6,7.98-5.22
			c26.98,0.0399,54.01-0.5701,80.93,1.4399c10.87,0.15,21.73,0.88,32.59,1.3301c0.02,0.2699,0.06,0.8199,0.09,1.09
			c-11.84,12.6-25.85,22.9-39.79,33.03c-17.95,12.99-36.56,25.1599-53.37,39.6499c-2.26,1.7101-4.15,4.7001-7.37,4.3201
			c-31.26,0-62.52,0.14-93.78-0.09c0.17-8.4801-0.1-16.9601,0.12-25.42c2.4-2.7,5.94-4.08,8.92-6.04
			C112.15,1815.42,134.94,1802.6899,154.02,1785.12z"/>
	</g>
	<g id="_x23_000000ff">
		<path stroke="#000000" stroke-width="0.0938" d="M642.27,451.73c10.41-0.87,20.89-0.16,31.32,0.27
			c18.69,1.66,37.3799,4.12,55.55,8.91c17.74,4.61,35.17,11.09,50.64,21.04c8.3799,5.45,15.99,12.03,22.83,19.3
			c8.84,9.48,16.28,20.57,20.06,33.06c0.93,3.12,1.47,6.34,1.71,9.59c27.23-0.4,54.47-0.01,81.7-0.2c4.16,0.01,8.33-0.01,12.5,0.19
			c-8.54,2.26-17.13,4.58-25.1,8.49c-13.9,6.51-26.84,14.9-39.2,23.95c-1.15,0.84-2.27,1.7-3.38,2.57c1.37,2.39,2.71,4.81,3.94,7.29
			c4.65,9.34,8.12,19.22,10.59,29.35c2.55,0.42,5.27,1.67,7.83,0.56c11.98-4.53,24.12-8.99,36.79-11.14
			c6.2-1.28,12.39,0.65,18.56,1.2599c4.79,0.69,9.57,1.45,14.38,2.05c33.04-20.62,62.82-45.83,92.51-70.89
			c7.0699-5.89,14.15-11.78,21.29-17.59c1.63-1.25,3.13-3,5.34-3.1c11.99-1.75,23.95-3.72,35.9399-5.4
			c15.17-0.22,30.3401-0.03,45.51-0.08c-12.2,9.63-23.8099,19.99-35.4299,30.32c-24.65,22.0699-49.59,44.1-77.6801,61.78
			c8.17,0.07,16.36,0,24.54,0.09c5.79,0.45,10.55-3.4301,15.4-5.97c25.7999-15.76,49.37-34.95,71.34-55.65
			c0.6801-0.65,1.39-1.28,2.12-1.9c10.71-0.48,21.4-1.28,32.1-1.79c15.8101-0.16,31.63,0.17,47.4401-0.17l0.63,0.54
			c-1.8201,1.73-3.61,3.48-5.36,5.27c19.4199,0,38.84,0.04,58.2599-0.03c10.2401,0.06,20.4801-0.04,30.7201,0.08
			c-16.37,12.6-33.0601,24.79-49.4401,37.37c4.61,0.05,9.24,0.03,13.86,0.06c47.2301-35.73,94.27-71.71,141.4501-107.51
			c5.51-3.88,10.47-8.63,16.2899-12.01c24.79-0.2,49.5901,0,74.39-0.09c6.78,0.05,13.5601-0.03,20.3501,0.06
			c-61.89,47.09-123.77,94.19-185.6901,141.24c-7.3199,0.08-14.65-0.21-21.95,0.21c-4.41-0.32-8.8301-0.3-13.2301-0.32
			c-8.21,6.83-16.2,13.92-24.34,20.83c-2.1899,1.92-4.4199,3.79-6.5599,5.75c7.1,1.3,14.22,2.58,21.34,3.84
			c4.6899-4.96,9.26-10.03,13.98-14.97c14.3201-1.16,28.65-2.42,42.98-3.63c10.7101-0.82,21.26-3.3,31.3101-7.08
			c2.9-0.9901,5.72-2.52,8.87-2.52c-0.8201,3.51-3.01,6.44-4.76,9.52c-7.64,12.42-15.04,24.98-22.17,37.7
			c3.8401,9.66,7.6801,19.32,11.55,28.97c-10.9,8.49-22.75,15.62-33.86,23.79c3.76,3.16,7.24,6.69,10.1599,10.66
			c3.02,4.05,5.5701,8.43,8.02,12.85c3.11-0.02,6.2201-0.05,9.3501-0.08c-2.14,1.9-4.3,3.78-6.4601,5.65
			c4.54,9.1,7.88,18.73,10.8201,28.45c2.98-0.24,5.3999-2.07,7.7799-3.71c25.4801-17.1,51.13-33.95,76.5701-51.11
			c20.6799-13.65,41.33-27.36,61.85-41.25c5.1-3.14,10-6.61,15.02-9.87c11.61-7.61,23.01-15.6,34.77-22.96
			c6.35-0.4,12.73,0,19.1-0.12c25.3199-0.05,50.64-0.02,75.97-0.02c-9.4399,6.51-19.0599,12.73-28.58,19.1
			c-4.47,3.03-8.98,5.98-13.4601,8.99c-37.6699,25.07-75.33,50.15-113,75.22c14.67,0.1,29.3401-0.02,44.01,0.07
			c5.5701,0.43,10.4-2.79,15.4-4.7c16.53-7.29,31.9301-16.8199,46.9601-26.78c7.6-4.73,15.1699-9.98,23.97-12.23
			c5.02-1.42,10.2-0.13,15.2899,0.19c46.28,4.2,92.5601,8.4,138.8401,12.67c-4.51,5.87-10.1901,10.71-15.4,15.93
			c-7.49,7.21-15.13,14.26-22.65,21.42c-10.5499,9.82-21.0499,19.69-31.29,29.82c0.03,0.45,0.1101,1.36,0.15,1.81
			c-1.4099,0.62-2.9099,1.13-4,2.25c-14.9199,14.5-31.26,27.44-47.36,40.59c-43.33,35.02-87.45,69.06-130.51,104.41
			c-14.1799,11.81-28.5599,23.47-41.48,36.66c-2.05,2.47-5.0699,4.86-5.26,8.28c2.7001,1.27,5.8-0.45,8.4401-1.29
			c16.4399-6.82,31.86-15.81,47.4099-24.4c15.29-8.65,31.7001-16.86,49.6001-17.58c19.62-0.11,39.21-1.45,58.83-2
			c16.98-0.21,34.24-0.5699,50.92,3.1801l1.4099,0.3c5.5701-3.54,10.8301-7.58,16.3301-11.24c2.23-1.57,4.47-3.14,6.73-4.7
			c31.6799,0.06,63.37-0.03,95.0599,0.05c-1.99,1.45-4.01,2.84-6.01,4.24c-19.2799,13.51-38.61,26.94-57.87,40.47
			c21.41,0.24,42.8301-0.06,64.25,0.16c-9.71,7.39-19.46,14.72-29.08,22.22c-9.6,7.08-18.99,14.43-28.49,21.64
			c-12.01,9.12-24.01,18.24-35.98,27.4c-33.88,25.84-67.85,51.5599-101.62,77.53c5.3199,1.75,10.98,0.83,16.47,0.95
			c4.65-0.2,9.34,0.4501,13.98-0.14c0.4401-0.27,1.3101-0.8199,1.75-1.09c10.63-9.41,21.27-18.84,30.9301-29.28
			c31.6699,0.09,63.34,0.02,95.0199,0.03c-10.99,12.35-23.11,23.62-34.33,35.75c-8.0599,8.58-15.79,17.46-23.16,26.63
			c-2.2999,2.77-4.21,6.0699-7.51,7.78c-13.5699,7.8999-26.59,16.77-38.85,26.6c24.0901,0.15,48.1901-0.0601,72.28,0.11
			c-31.36,25.2-62.75,50.35-94.12,75.53c-5.95,5.0399-12.51,9.4099-17.99,14.95c-19.1901,25.9-44.88,45.88-65.97,70.0801
			c-5.5601,6.4299-10.79,13.1799-15.12,20.5099c15.33,0.17,30.6799-0.1699,46.0199,0.2201c19.3201,0.87,38.6101,2.52,57.91,3.89
			c-59.0499,35.0199-118.2999,69.71-177.36,104.71c-10.15-0.72-20.34-0.2001-30.51-0.35c-15.35-0.03-30.6899,0.02-46.03-0.01
			c-5.5399-0.0801-11.1699,0.5-16.5699-0.97c10.49-6.13,20.92-12.3601,31.4-18.51c-22.61-0.3501-45.22,0.01-67.8201-0.1801
			c-3.4399-0.5699-5.48,2.6901-7.76,4.64c-11.1,10.41-18.75,23.72-28.6799,35.14c-4.3,5.02-8.85,9.7999-13.5,14.49
			c27.88,0.11,55.76-0.12,83.63,0.11c-25.9401,23.1801-55.53,41.78-85.3101,59.5699c-28.2,16.8201-56.97,32.7401-84.47,50.7201
			c24.55,30.51,51.8199,59.25,83.45,82.52c26.75,20.46,50.17,44.83,73.27,69.23c7.4401,8.02,14.87,16.0599,22.1901,24.2
			c14.36,16.13,28.52,32.45,42.4299,48.97c7.4601,8.8101,14.8,17.7101,22.13,26.63c-68.1599,1.0801-136.33,1.9-204.49,2.9701
			c-17.97,0.0499-35.95,0.8199-53.9199,0.6899c-4.88-1.63-9.2301-4.66-13.8201-6.98c-31.0599-17.55-61.46-36.3-90.8099-56.59
			c-34.01-23.15-66.3301-48.67-97.7401-75.2101c-40.65-34.2899-80.31-69.75-119.33-105.87c-1.13-1.0699-2.79-1.13-4.2-1.4399
			c-22.15-3.8101-44.58-6.4501-67.08-6.37c-20.74-0.2101-41.46,0.2799-62.18,0.88c3.02,6.2899,7,12.0699,10.47,18.13
			c11.89,19.9199,23.68,39.8899,35.39,59.9199c2.64,4.54,5.27,9.11,7.93,13.66c8.07,13.88,16.3,27.75,22.18,42.75
			c2.33,5.67,4.58,11.39,6.68,17.17c6.72,18.6699,12.32,37.72,17.32,56.9099c1.65,6.4601,3.24,12.9301,4.78,19.42
			c1.74,7.45,3.37,14.9399,4.92,22.4399c-5.74,0.12-11.47,0.03-17.2,0.2001c-21.82,0.26-43.65,0.1899-65.48,0.47
			c-23.19,0.12-46.38,0.65-69.57,0.52c-35.85-31.8101-71.29-64.09-106.01-97.14c-16.59-15.85-33.04-31.85-49.15-48.1899
			c-23.63-24.4701-47.58-49.04-66.36-77.5601c-6.3-9.6801-11.94-19.8099-16.42-30.47c-6.99-17.22-10.57-36.5801-5.61-54.84
			c4.18-14.7301,13.26-27.8,24.69-37.8401c15.08-12.71,32.13-22.74,48.86-33.0599c31.2-18.79,63.05-36.48,94.95-54.04
			c28.47-15.5,56.99-30.91,85.71-45.92l0.4901-0.1799c-2.1201-1.5601-4.85-1.25-7.32-1.26c-3.41,0.11-6.96-0.08-10.14,1.37
			c-6.7,2.65-13.52,4.96-20.24,7.54c-1.78,0.71-3.68,1.08-5.59,1.0399c-21.8-0.11-43.6,0.0701-65.39-0.1
			c-14.74,12.5701-29.1299,25.54-43.77,38.22c-31.74-0.0199-63.49,0.0601-95.23-0.0399c43.48-37.9301,86.76-76.0901,130.21-114.0601
			c-0.2-0.38-0.59-1.13-0.79-1.5c5.85-9.5499,11.88-19,18.45-28.0699c-27.85-0.11-55.7,0.02-83.55-0.0601
			c-4.33-0.5599-7.21,3.26-10.62,5.2101c-3.91,2.2799-7.23,5.7899-11.51,7.2899c-31.45,0.12-62.91,0.12-94.36-0.01
			c36.71-25.27,73.62-50.27,110.26-75.65c-1.79-0.08-3.58-0.1399-5.37-0.1799c17.72-21.87,40.89-38.37,63.72-54.47
			c-12.74-0.12-25.43-1.17-38.11-2.28c-12-0.89-24.22-1.46-36.06,1.15c-11.58,2.51-22.37,7.9299-31.93,14.86
			c-2.12,1.45-4.24,3.46-7.03,3.13c-28.64-0.0601-57.27-0.02-85.91-0.02c-2.12-0.04-4.22-0.1801-6.33-0.3101
			C418.02,1158.3,446.56,1137.52,475.09,1117c20.38-14.66,40.79-29.35,59.84-45.73c-27.32-0.1801-54.65,0.24-81.96-0.21
			c-12.18,9.7999-25.54,18.36-40.32,23.6499c-14.62,5.26-30.34,8.05-45.89,6.76c-22.88,19.65-45.62,39.47-68.55,59.0601
			c-27.66-0.03-55.33-0.04-83,0.01c-4.04-0.02-8.08-0.02-12.12-0.04c6.88-6.01,13.85-11.92,20.74-17.9301
			c32.72-28.2,65.45-56.3999,98.14-84.6399c-4.54-13.8-7.34-28.3101-6.7-42.8801c0.69-19.38,2.85-38.67,4.21-58.01
			c1.41-20.04,2.75-40.1,3.02-60.2c-14.32,0.06-28.66,0.18-42.99-0.14c14.53-6.3,28.83-13.1,43.24-19.68
			c0.15-37.79,8.03-75.93,25.45-109.62c0.24-1.82-0.17-3.64-0.38-5.4301c-3.22-21.53-6.98-42.98-10.74-64.43
			c-1.53-8.46-3.03-16.93-3.9-25.48c-1.26-12.18-1.4-24.47-0.66-36.69c0.16-2.16,0.34-4.32,0.56-6.46
			c0.79-7.58,2.03-15.11,3.67-22.55c2.23-9.91,5.36-19.6,9.11-29.04c1.93-4.18,2.52-9.15,6.08-12.4c7.01-7.52,18-13.85,28.39-9.53
			c1.5,0.9,2.98,1.88,4.34,3c5.76,5.53,8.62,13.21,11.3,20.55c6.58,19.12,10.58,38.98,14.63,58.75
			c16.85-16.01,33.94-31.76,51.38-47.13c22.93-18.91,46.83-37.21,74.1-49.49c4-15.83,13.54-29.66,24.74-41.29
			c5.68-6.03,12.35-10.97,18.31-16.71C597.06,467.64,618.44,454.82,642.27,451.73 M570.74,520.72
			c-9.31,3.08-17.08,10.1801-21.02,19.15c-5.98,13.13-7.31,27.86-7.11,42.12c0.03,6.26,5.13,10.41,8.18,15.31
			c2.47,4.52-1.29,9.1-4.21,12.32c-7.4,8.29-16.3,15.37-22.28,24.85c-2.54,3.8-3.78,9.73,0.22,13.03
			c4.59,3.68,9.73,6.96,13.04,11.97c0.8,1.32,1.73,2.78,1.53,4.42c-0.53,5.88-0.61,12.03,1.56,17.63c1.19,3.07,3.47,5.87,6.67,6.97
			c9.12,3.22,18.36,6.09,27.54,9.13c-0.01,0.19-0.01,0.57-0.02,0.76c-5.61,2.92-11.29,5.71-16.89,8.63
			c-2.49,1.21-3.94,4.21-3.28,6.91c0.7,3.31,3.36,5.63,5.03,8.46c2.83,4.31,4.05,9.43,4.59,14.5c4.41,4.53,9.82,8.2,15.96,9.89
			c8.41,2.43,17.46,0.47,25.02-3.6c23.55-11.88,45.6-26.57,66.75-42.28c2.72-1.93,6.97-1.69,9.02,1.11
			c2.63,3.43,1.76,8.26-0.17,11.8c-1.96,3.81-5.27,6.6-8.44,9.36c-3.02,2.56-5.12,6.8-3.57,10.7401c2.4,6.41,8.84,9.87,14.37,13.25
			c-9.23,0.29-18.47-0.17-27.68,0.24c5.61,12.39,12.53,24.32,21.61,34.52c8.6,9.59,15.7401,20.45,21.58,31.92
			c-11.63-3.5-23.22-7.11-34.85-10.61c7.29,11.92,14.71,23.77,21.66,35.89c1.89,3.34,3.79,7.16,7.49,8.81
			c3.23,1.55,7.01-0.1,9.15-2.7c4.84-5.6299,5.92-13.2599,7.19-20.31c1.64-8.73,5.68-17.18,12.4-23.12
			c10.0699-9.28,23.6899-13.12,34.31-21.62c6.83-5.16,12.65-12.43,13.92-21.11c1.15-9.27,4.22-18.19,8.46-26.48
			c-3.83-7.89-8.24-15.53-13.46-22.57c-3.59-4.73-7.69-9.49-13.38-11.65c-14.21-6.2-28.33-12.7-42.82-18.17
			c-2.59-1.2-4.37-4.41-2.85-7.1c2.5099-5,7.41-8.2,11.91-11.26c9.72-5.92,19.73-11.96,27.04-20.88c4.53-5.39,8.21-12.85,5.65-19.95
			c-1.92-5.53-7.49-8.24-11.16-12.42c-3.13-3.21-6.91-7.73-11.98-6.05c-9.93,3.46-16.73,12.35-26.2,16.67
			c-6.33,1.97-14.3199,0.44-18.4-5.13c-3.31-4.35-5.84-9.28-9.56-13.33c-9.84-11.68-26.49-14.1-36.59-25.5
			c-0.86-1.14-2.16-3-0.72-4.26c3.64-1.9,8.61,0.03,11.69-3.25c2.28-2.41,0.23-5.88-1.99-7.5c-6.53-5.41-15.9301-4.35-22.67-9.35
			c-2.18-1.62-4.22-4.02-4.14-6.89c0.21-6.23-2.47-12.51-6.98-16.77c-4.23-4.09-10.41-4.2599-15.77-5.8
			C587.88,519.24,578.95,517.72,570.74,520.72 M359.93,577.92c-0.25,1.51,0.35,3.5,2.1,3.73c7.93,1.66,11.62,9.77,14.37,16.54
			c2.31-0.68,2.73-3.21,3.19-5.25c1.38-7.77-1.85-16.62-8.86-20.66C366.4,569.94,360.92,573.43,359.93,577.92 M355.32,605.63
			c2.57,4.96,8.9,4.27,13.11,6.91c2.5,1.17,3.78,3.7,5.49,5.72c1.65-4.97-0.48-10.16-2.45-14.71c-2.51-5.17-6.47-10.71-12.56-11.61
			C353.19,593.29,352.63,601.34,355.32,605.63 M351.52,630.36c-0.34,14.21,0.02,28.44,0,42.66c0.34,20.8,0.15,41.71,3.25,62.34
			c1.69,11.09,3.51,22.36,8.17,32.65c2.87,5.58,6.54,10.86,11.22,15.09c-5.96-0.91-11.92-1.7599-17.88-2.59
			c-6.08,11.47-8.58,24.6-8.21,37.52c0.32,11.67,0.77,23.33,1.09,35.0099c0.2,22.66,0.83,45.77-4.97,67.88
			c-4.93,13.81-6.64,28.49-7.79,43.03c-1.63,22.96-1.45,46.12,1.45,68.98c1.54,10.86,3.51,21.87,8.14,31.8899
			c3.28,6.5801,7.58,13.3401,14.48,16.5601c6.33,3.01,14.27,1,19.15-3.77c2.64-5.33,4.51-11,6.69-16.53
			c8.78-23.9399,16.56-48.2999,22.06-73.21c3.56-16.96,6.59-34.47,4.08-51.81c-0.2-4.51-1.6-9.41,0.53-13.64
			c4.77,4.47,6.58,11.08,9.91,16.57c1.05,1.43,1.68,4.19,3.93,3.96c2.44-6,1-12.74,0.73-19.01c-1.53-20.37-8.02-39.83-11.72-59.82
			c-3.5-16.55-6.62-33.27-12.36-49.23c-2.63-6.9-5.61-14.08-11.29-19.06c-2.23-2.24-4.91-4.55-5.48-7.81
			c-0.29-2.25,1.66-3.86,3.33-4.97c5.21-3.24,11.32-4.99,16.05-9.02c4.33-4,5.06-10.4,4.4-15.95c-1.47-10.63-7.03-20.41-14.67-27.83
			c-9.94-10.69-19.92-23.19-21-38.33c-0.31-19.88-4.84-39.34-7.1-59.03c-1.07-5.18-3.84-11.62-9.71-12.48
			C353.15,620.61,351.89,626.46,351.52,630.36 M842.47,624.72c-2.3,0.28-3.4399,2.42-4.74,4.04c-5.56,7.35-11.94,14.32-19.95,19.03
			c-3.9301,2.29-9.05,3.35-11.42,7.64c-1.92,3.02-0.65,7.1,2.12,9.12c4.67,3.63,10.85,4.05,16.54,4.08
			c5.46,0.01,10.71,1.63,16.04,2.59c7.16,1.22,13.52-3.2,19.1-7.05c8.15-6.11,16.15-12.5,23.19-19.88
			c2.6-2.99,5.7401-6.22,5.89-10.41c-0.41-3.03-3.65-4.3-6.23-4.93c-8.43-1.83-16.97-3.15-25.53-4.13
			C852.5,624.39,847.42,623.73,842.47,624.72 M1236.27,647.33l0.45,0.1c-1.11-0.01-1.5599,1.47-2.2999,2.12
			c-3.11,3.73-6.15,7.52-9.36,11.17c6.2999,0.83,12.61-0.22,18.9099,0.42c1.62,0.07,3.3-0.3,4.5601-1.41
			c5.36-5.79,11.11-11.22,16.2899-17.19l0.1901,0.07c-0.4401-1.05-0.74-2.26-1.9-2.71c-4.84-2.82-10.6899-3.21-15.47-6.15
			C1243.83,638.26,1240.1,642.84,1236.27,647.33 M450.08,637.08c-4.36,0.88-8.08,3.89-10.25,7.72c-3.53,6.12-4.43,13.31-4.99,20.25
			c-0.66,7.33,0.38,14.86-1.76,22.01c-2.06,7.99-6.41,15.17-11.69,21.44c-2.52,5.86-4.38,12.02-6.6,18.02
			c-1.2,5.55-1.08,11.36-0.13,16.95c0.83,4.25,2.56,8.95,6.71,11c5.56,2.52,12.29,0.39,16.6-3.62c5.41-4.97,8.27-12.03,10.36-18.92
			c3.78-12.96,4.5-26.54,4.62-39.96c0.11-10.6,5.97-19.79,8.12-29.9399c1.19-5.42,3.35-10.5601,4.52-15.97
			c0.56-2.61,0.53-5.94-1.94-7.57C459.58,636.16,454.55,636.34,450.08,637.08 M471.99,668.98c-1.16,1.1-2.75,2.15-2.61,3.97
			c-1.38,11.32-1.9,22.73-2.27,34.12c16.72-14.11,33.95-27.61,50.78-41.59c-5.63-4.59-9.89-10.66-13.31-17.02
			c-1.44-2.52-1.38-5.48-1.35-8.27C492.92,649.9,482.6,659.6,471.99,668.98 M1111.99,698.07c-19.9399,2.28-39.9299,6.67-57.96,15.72
			c-28.8-3.75-57.9-6.66-86.96-5.04c-16.05,0.86-31.94,4.82-46.4,11.83c-8.87,4.38-17.43,9.83-24.09,17.24
			c-12.01-2.27-24.51-4.6-36.64-1.93c-5.07,0.91-9.15,4.88-10.17,9.93c-2.84,11.45-1.71,23.44-0.32,35.03
			c2.11,15.4,5.9,30.61,11.63,45.07c3.28,8.37,8.49,15.84,14.51,22.46c11.4,12.41,25.67,21.84,40.61,29.46
			c14.28-7.67,28.37-15.69,42.56-23.51c0.01-0.16,0.03-0.47,0.04-0.62c-15.35-2.26-30.69-4.64-45.86-7.92
			c-5.58-1.2599-11.44-4.19-13.94-9.62c-1.78-3.65-0.56-8.14,2.31-10.86c4.73-4.67,11.44-6.43,17.78-7.64
			c13.3-2.56,26.6299-4.98,39.89-7.75c2.08-0.04,1.14-2.28,0.09-2.96c-5.93-3.5-13.21-2.63-19.39-5.25
			c2.58-2.92,6.83-3.15,10.36-4.2c20.34-4.23,41.17-5.94,61.93-6.29c15.74,0.11,31.48-1.3799,46.98-4.15
			c16.37-3.06,32.6801-7.08,48.05-13.6c1.4-0.8199,4.21-0.79,3.91,1.47c-0.63,3.41-3.0901,6.1-5.38,8.55
			c-7.97,8-18.2001,13.35-28.67,17.36c-3.0599,1.25-6.4299,2.4-8.46,5.2c3.53,2.84,8.4299,2.1,12.66,2.37
			c21.2999-0.3,42.47-3.49,63.2999-7.77c24.63-5.46,48.89-12.69,73.8-16.85c8.5499-1.08,17.59-2.74,25.98,0.13
			c4.58,1.55,5.21,6.82,7.37,10.49c9.41,17.7,19.74,34.9,29.92,52.16c20.6699,34.9,41.87,69.48,62.47,104.43
			c9.3099,15.58,16.87,32.74,18.48,51.01c0.77,9.01-0.29,18.3-3.98,26.62c-8.8101,20.14-9.86,42.87-6.49,64.37
			c2,13.6,6.39,26.66,9.9,39.91c2.0399,6.9099,3.49,14.1,6.7999,20.5599c1.7001,3.53,5.53,5.75,9.4401,5.6
			c3.8899-0.46,5.26-4.7699,5.99-8.0199c1.99-10.28,0.6499-20.8,1.23-31.17c0.0499-1.8201,0.99-5.2001,3.4199-3.5601
			c4.2001,3.16,6.77,7.9601,9.67,12.26c14.96,23.98,25.86,50.4701,43.09,73.01c5.55,7.09,13.3601,13.62,22.76,13.92
			c1.89-2.88,0.3301-6.21-0.6899-9.0701c-4.72-11.76-10.97-22.88-14.8201-34.98c-0.7-2.2899-1.46-4.7899,0.1001-6.89
			c6.8099,2.87,11.6699,8.75,16.99,13.66c6.77,6.5,12.95,13.62,20.1699,19.63c3.53,2.61,7.4601,5.5601,12.0701,5.5
			c2.21-0.11,3.21-2.6,2.58-4.48c-1.2-4.92-4.76-8.8201-8.24-12.3c-8.0699-7.63-15.48-16.0499-21.23-25.5699
			c-2.22-4.02-5.28-8.1901-4.84-13c1.4199,0.6899,2.62,1.75,3.61,3.01c5.8099,7.1599,11.23,14.6899,17.7999,21.21
			c3.9601,3.78,8.25,7.7,13.6801,9.1801c1.7999,0.33,4.67,0.88,5.4-1.4401c-0.89-4.61-4.02-8.35-6.64-12.09
			c-7.09-9.62-14.6801-18.88-21.26-28.86c-9.35-13.72-14.75-29.5601-21.4301-44.64c-8.14-19.28-15.89-38.72-24.1599-57.9501
			c-0.77-1.34-1.12-3.48-3.03-3.3899c-0.36,6.38,0.71,12.71,1.6,19c1.8,11.6799,4.05,23.2899,6.79,34.7899
			c0.9199,4.24,2.62,8.3201,2.85,12.7001c-2.14-0.04-3.52-1.87-4.79-3.3301c-3.35-4.08-6.1699-8.5699-8.8099-13.12
			c-3.8301-6.8199-7.48-14.01-8.26-21.9c-0.59-3.3099-4.5701-3.5699-7.0801-2.4199c-7.11,2.88-12.9299,8.1899-18.1799,13.66
			c-2.2001,2.1-3.5601,4.98-6.04,6.7899c-0.0499-3.98,1.01-7.83,1.92-11.6599c5.5-22.15,13.03-43.7601,18.16-66.0101
			c2.71-11.84,0.84-24.49-4.92-35.15c-8.1-13.81-12.76-29.2401-17.55-44.41c-7.5299-24.96-13.71-50.31-19.1699-75.79
			c-4.9-22.08-7.78-44.53-12.53-66.62c-3.8-17.44-7.98-35-15.74-51.17c-3.1-5.84-6.62-12.5099-13.37-14.66
			c-11.5801-4.18-23.89-5.7-36.01-7.5c-38.84-5.01-77.98-7.27-117.09-9.07C1152.05,696.12,1131.9301,695.76,1111.99,698.07
			 M791.87,737.86c-2.79,11.6-6.94,22.92-12.87,33.3c-5.52,9.6201-12.85,18.51-22.45,24.28c-13.93,8.68-22.27,23.56-28.95,38.07
			c-4.47,9.39-7.48,19.51-12.92,28.42c-3.23,5.02-10.07,4.34-15.15,3.4c-12.54-3.09-24.17-10.64-31.51-21.34
			c-3.66-5.13-4.8-11.42-6.82-17.25c-2.97-8.96-6.35-17.82-10.64-26.23c-12.07,5.88-24.13,11.79-36.06,17.96
			c-9.81,5.11-18.32,13.29-22.37,23.7401c-4.61,11.31-3.98,23.81-2.56,35.69c2.08,30.66,0.09,61.43-2.47,92
			c-1.21,12.66-3.18,25.39-1.59,38.12c1.55,14.97,7.05,29.38,15.16,42c7.66,11.88,17.12,22.4299,25.98,33.41
			c13.54,16.3899,27.23,32.6599,40.14,49.5499c4.58,6.2001,9.35,12.36,12.66,19.37c3.84,7.76,11.69,14.27,20.57,14.5801
			c32.75-2.1001,65.51-4.54,98.09-8.52c12.14-1.65,24.54-3.3101,35.79-8.41c2.98-1.6,6.63-3.34,7.71-6.78
			c-14.94-34.13-26.13-70.15-30.69-107.2c-2.68-22-2.42-44.46,2.32-66.16c8.52-42.8,22.55-84.51,41.5-123.81
			c-0.16-1.2-1.06-2.11-1.57-3.14c-6.82-11.29-12.78-23.12-17.56-35.41c-4.72-12.53-8.62-25.94-6.89-39.46
			c1.33-12.36,5.0601-25.33,14.34-34.13C825.99,735.21,808.94,736.6,791.87,737.86 M552.12,764.62c-6.43,1.04-12.44,3.92-17.6,7.84
			c-10.17,7.78-18.35,17.74-26.97,27.12c-22.99,24.65-36.59,55.97-51.25,85.86c-6.09,12.55-15.11,23.31-23.91,34
			c-2.29,1.64,0.45,4.46,2.52,3.03c7.05-3.0699,12.46-8.7599,18.73-13.06c19.34-13.73,39.88-25.67,60.56-37.2599
			c7.59-3.96,14.28-9.55,19.59-16.26c1.95-2.16,3.52-4.93,6.25-6.19c3.12-0.91,5.27,2.28,7.07,4.31
			c6.17,8.16,10.7,17.38,15.69,26.27c2.47,4.31,4.5,9,7.98,12.64c0.7599-2.67-0.08-5.37-0.57-7.99c-1.83-8.52-3.35-17.21-2.93-25.95
			c0.29-5.56,1.3-11.42,4.83-15.9c3.3-4.45,8.89-6.43,12.18-10.87c5.55-7.37,10.85-14.93,16.44-22.27c-0.92-7-4.2-13.33-6.38-19.96
			c-2.67-9.56-3.45-19.55-3.64-29.44C577.81,761.47,564.9,762.6,552.12,764.62 M863.27,859.23c-3.86,10.26-11.33,18.71-14.81,29.13
			c-4.27,11.68-7.34,23.75-10.28,35.82c-5.58,23.41-10.09,47.06-14.09,70.78c-5.36,27.7599-0.1201,56.27,7.77,83.02
			c6.26,20.96,14.71,41.23,24.48,60.79c7.54,0.6699,15.14,0.12,22.7,0.3199c6.77,0.26,13.45-1.11,20.06-2.4
			c5.14-1.1299,10.35-2.3199,15.08-4.71c1.61-0.9,3.52-1.99,3.92-3.96c-1.86-19.29-0.67-38.73,0.86-57.99
			c1.9-23.39,7.68-46.19,12.22-69.14c5.03-24.13,10.03-48.26,15.19-72.35c-15-6.19-28.76-15.25-40.59-26.33
			C890.96,888.55,877.07,873.91,863.27,859.23 M530.45,928.66c-17.12,4.9901-34.16,10.96-49.45,20.3
			c-8.89,5.48-17.34,12.29-22.55,21.5099c-7.97,13.3701-11.13,29.11-11.56,44.53c0.49,7.32,0.44,15.24,4.51,21.67
			c1.49,2.5699,4.63,4.3999,7.61,3.26c4.74-1.78,7.88-6.02,11.42-9.4301c13.95-15.2,26.48-31.62,39.23-47.82
			c15.04-19.59,29.78-39.41,44.37-59.34C546.01,924.28,538.27,926.74,530.45,928.66 M955.6,946.91
			c-12.68,47.29-18.59,96.19-20.8199,145.03c-0.61,10.9401-0.54,21.92-1.5601,32.8301c13.41-2.13,26.61-5.34,39.91-8.0601
			c5.3-1.0599,10.83-2.9399,14.47-7.1599c4.44-4.79,4.8-13.5701-0.63-17.75c-3.09-2.52-6.75-0.0701-10.08,0.3899
			c-7.44,1-15.27,0.9701-22.42-1.5199c-2.33-0.77-5.4-2.8401-4.09-5.7001c1.6-3.21,4.99-4.89,7.62-7.13
			c8.55-6.99,16.49-14.7799,23.45-23.37c1.54-2.2,3.86-4.46,3.43-7.38c-2.47,0.48-4.73,1.5901-6.84,2.92
			c-6.43,3.98-13.28,7.89-20.92,8.79c-2.42,0.2799-5.89,0.08-6.63-2.8c0.02-3.53,2.54-6.29,4.72-8.8
			c6.06-6.71,14.15-11.08,20.62-17.33c11.18-10.9,19.61-24.77,23.71-39.86c0.73-3.96,2.38-8.81-0.57-12.25
			c-3.42,0.95-5.49,3.97-8.16,6.06c-5.36,4.34-11.38,7.97-17.88,10.33c-2.37,0.67-5.24,1.9-7.48,0.34
			c-0.91-2.23,0.91-4.28,2.04-6.04c15.27-18.32,27.09-39.2,38.66-59.98c-14.41-0.9-28.82-1.77-43.22-2.67
			C959.86,932.6,957.64,939.74,955.6,946.91 M948.98,1136.4399c-24.23,3.8501-48.34,8.54-72.15,14.4701
			c-9.37,2.52-18.91,4.83-27.59,9.27c-17.89,8.0599-37.86,9.34-57.2,9.6899c-8.2,0.63-12.14,8.8101-18.53,12.78
			c-6.71,5.22-15.38,6.4399-23.6,7c-15.3799,1.03-30.81,0.11-46.1299-1.28c23.47,43.1,47.12,86.1,70.6299,129.1901
			c1.38,3.3199,6.81,3.1399,8.41,0.0499c3-4.84,1.78-10.7999,2.82-16.12c0.71-3.3099,4.29-5.09,7.46-4.29
			c7.08,1.25,12.98,5.75,18.78,9.7101c10.34-4.99,20.62-10.12,30.95-15.14c8.12-3.72,18.58-2.8,24.88-10.01
			c7.53-8.17,6.19-20.15,10.72-29.7c1.14-2.39,3.54-5.3301,6.53-4.0601c4.0099,1.95,6.2,6.17,8.18,9.97
			c1.3,2.3101,1.84,5.64,4.75,6.51c4.13,1.3201,8.53,0.12,12.57-0.99c9.17-2.85,17.82-7.16,26.21-11.79
			c8.79-4.9199,17.47-10.21,25.01-16.96c7.21-6.14,13.67-13.1899,21.53-18.54c4.03-2.87,9.78-3.62,12.32-8.2999
			c2.54-5.3,1.22-11.36,0.83-16.9601c-1.25-11.5299-5.37-22.5-9.99-33.0499c-2.9,2.5599-5.13,5.74-7.72,8.59
			c-11.69,13.73-23.47,27.41-34.38,41.79c-2.06,2.51-3.4,5.78-6.32,7.46c-0.14-3.91,1.32-7.59,2.55-11.22
			c5.85-15.95,13.58-31.42,24.56-44.49c5.09-6.89,11.57-13.03,14.91-21.03c1.5-3.3099-2.16-5.39-4.98-5.2
			C966.25,1133.55,957.6,1135.29,948.98,1136.4399 M971.74,1248.6801c-10.64,8.1799-20.77,17.3199-33.02,23.09
			c-12.24,5.84-25.66,8.39-38.85,11.08c-8.66,1.79-17.52,2.85-25.91,5.75c-16.91,5.66-32.61,14.35-47.84,23.51
			c-18.65,11.4-36.48,24.08-53.78,37.41c-1.36,8.91-2.23,17.89-3.5,26.8199c4.22-2.1899,8.62-4.0399,13.0699-5.74
			c19.41-7.35,39.34-13.21,59.2-19.21c20.75-6.1,41.32-13.37,62.85-16.28c21.06-3.0599,42.74,0.8201,63.49-4.7999
			c27.86-7.13,55.05-16.5801,82.64-24.65c14.91-4.1,30.65-5.4401,46-3.3301c34.9401,4.6801,65.64,26.79,86.02,54.88
			c-0.5699-4.21-2.3099-8.14-4.11-11.9299c-7.49-14.78-19.47-26.78-32.65-36.5601c-11.4399-8.26-23.6699-15.51-34.14-25.0399
			c-6.1799-5.8501-14.24-8.9601-21.64-12.9c-10.6499-5.27-21.0699-11.17-32.38-14.9301c-5.37-1.64-11.2599-3.11-16.7599-1.24
			c-4.1101,1.42-6.8301,5.28-8.05,9.3101c-2.3199,7.2699-7.23,13.46-13,18.34c-3.97,3.08-8.19,6.71-13.46,6.89
			c0.76-5.14,5.97-7.73,8.83-11.64c5.05-6.27,5.77-14.9,4.36-22.5701c-2.06-11.1599-7.26-21.49-13.43-30.9099
			C994.08,1231.84,982.84,1240.17,971.74,1248.6801 M707.82,1313.0601c-15.93,14.0599-31.99,27.98-47.91,42.0499
			c8.1801-3.61,15.9-8.16,23.92-12.09c19.24-10.0701,38.63-19.8301,57.8-30.02c-2.95-1.63-6.4-1.16-9.61-1.13
			c-5.98,0.27-11.96,0.24-17.93-0.08C711.95,1311.78,709.46,1311.34,707.82,1313.0601 M1043.09,1320.85
			c-5.8099,1.59-10.95,6.55-10.96,12.87c-40.26,5.29-80.26,12.4601-120,20.78c-41.83,8.89-83.38,19.26-124.2,32.05
			c-40.39,12.7-80.24,27.71-117.66,47.6499c-14.33,7.89-28.37,16.3-42.54,24.4601c-17.72,10.2799-35.4,20.62-52.75,31.51
			c-16.64,10.6599-33.26,21.58-47.83,35.0199c-10,9.3501-19.31,20.17-23.74,33.3401c-4.09,11.73-3.17,24.73,0.87,36.34
			c5.31,15.54,14.73,29.21,24.54,42.22c14.09,18.4301,29.54,35.78,45.35,52.74c25.97,27.7201,53.08,54.36,80.65,80.49
			c28.63,27.0701,57.7,53.6801,87.36,79.63c35.6-0.0599,71.19,0.02,106.79-0.01c-19.61-52.34-40.1899-104.3799-63.83-155.0399
			c-7.97-16.66-16.15-33.3-26.2-48.8201c-8.8-13.6599-21.16-24.88-35.32-32.76c-19.72-11.0499-42.23-16.6-64.71-17.71
			c9.09-4.4399,18.47-8.2999,28.01-11.67c42.64-14.9399,87.24-23.46,131.93-29.46c20.96-2.91,42.08-4.34,63.04-7.1799
			c47.32-6.4801,94.06-17.4301,139.19-33.0701c35.07-12.47,69.8599-27.1699,100.2499-48.98c12.24-9.27,24.75-19.76,30.6801-34.34
			c6.39-18.41,11.22-38.76,5.5599-57.99c-4.6799-16.2101-17.9299-28.37-32.5399-35.92c-15.5901-8.13-32.74-12.84-49.9301-16.14
			C1064.58,1319.16,1053.47,1317.72,1043.09,1320.85 M952.25,1593.21c-10.07,3.37-20.11,6.8401-30.06,10.5701
			c21.53,23.4299,43.28,46.73,66.45,68.5599c5.24,4.24,9.91,10.01,16.68,11.74c0.01-4.84-2.52-9.1499-3.94-13.6499
			c-8-20.0701-17.17-39.67-26.75-59.03c-3.73-7.16-7.22-14.5-11.95-21.0601C959.07,1590.74,955.68,1592.11,952.25,1593.21
			 M1299.27,1714.88c-1.42,8.86-4.17,17.47-7.99,25.58c-11.9501,26.15-30.77,48.16-47.5,71.27c-2.0601,3.34-5.15,6.61-5.28,10.72
			c4.8101,4.6001,8.49,10.3601,10.42,16.77c30.33,0.98,60.6699,1.8201,91,2.8301c28.63,0.6599,57.24,1.96,85.87,2.4099
			c-5.75-8.61-11.92-16.9199-17.9701-25.3199c-17.6499-24.13-35.6399-48.04-55.1899-70.67c-10.73-12.22-21.54-24.6-34.59-34.4199
			c-3.67-2.4-7.49-5.2301-11.98-5.5901C1302.37,1707.95,1299.62,1711.52,1299.27,1714.88z"/>
		<path stroke="#000000" stroke-width="0.0938" d="M1550.47,559.47c1.3-0.91,3.02-0.43,4.54-0.56c28.67,0.03,57.33,0.04,85.99,0.01
			c1.65,0.01,3.3199,0.13,5,0.25c-2.5699,2.96-5.2,5.86-8.11,8.48c-13.72,12.56-29.92,21.9-45.61,31.71
			c-14.53,9.02-29.4,17.98-41.5,30.22c-11.5801,0.22-23.17,0.05-34.74,0.1c-10.37,0.04-20.7101-0.93-31.0601-1.13
			c-5.84-0.34-11.6899-0.49-17.52-0.83C1492.61,601.95,1527.1899,587.28,1550.47,559.47z"/>
		<path stroke="#000000" stroke-width="0.0938" d="M832.63,650.6c6.43-4.09,13.17-7.9,20.48-10.19c2.8,2.38,5.77,4.56,8.52,7
			c-8.59,8.29-20.33,14.4301-32.56,13.1c-1.66-0.14-4.55-0.87-3.67-3.12C826.88,654.33,829.97,652.53,832.63,650.6z"/>
		<path stroke="#000000" stroke-width="0.0938" d="M1643.6,865.6c12.9401-9.12,26.11-18.65,35.11-31.93
			c34.48,0.13,68.9601-0.25,103.4301,0.24c17.3099,0.06,34.63-0.05,51.95,0.06c-11.0499,13.32-24.34,24.5601-37.7999,35.34
			c-6.4701,4.83-12.7101,10.15-19.62,14.26c-16.8501,0.2-33.7101-0.04-50.5601,0.12c-5.04,0.59-11.1899-1.88-15.22,2.11
			c-5.13,4.24-10.15,8.65-14.49,13.71c-1.2001,1.79-3.53,1.5-5.37,1.62c-20.01-0.02-40.01,0-60.01-0.01
			c-10.38-0.16-20.77,0.38-31.13-0.35C1612.3199,886.6,1628.33,876.37,1643.6,865.6z"/>
		<path stroke="#000000" stroke-width="0.0938" d="M772.75,893.78c5.92-9.19,14.33-17.76,25.34-20.27
			c7.41-1.81,15.06,0.03,21.93,2.93c-2.48,7.57-6.59,14.51-9.78,21.8c-8.56,18.09-17.06,36.22-24.31,54.87
			c-2.4,6.24-4.67,12.54-6.31,19.02c-1.2,4.82-1.27,10.13-4.28,14.31c-5.1801,7.66-14.53,10.82-23.16,12.67
			c-35.14,6.81-70.9-2.98-106.16,1.98c-9.01,1.2-17.6,4.27-26.03,7.52c-4.13,1.64-7.78-2.04-8.95-5.68
			c-2.96-8.28-2.15-17.4-0.53-25.88c3.54-17.09,12.61-33.27,26.3-44.28c7.82-6.39,15.9-12.75,25.29-16.7
			c5.9-2.52,12.56-3.44,18.85-1.93c12.09,2.63,21.88,11.2,33.99,13.75c10.91,2.57,22.7,0.26,32.04-5.86
			C757.92,915.11,765.99,904.63,772.75,893.78z"/>
		<path stroke="#000000" stroke-width="0.0938" d="M1447.24,1507.37c31.75-0.42,63.53,0.11,95.29-0.27
			c-14.9301,11-30.4401,21.22-45.5601,31.9401c-11.0599,7.48-21.8199,15.45-32.99,22.6899c-31.6899,0.14-63.4,0.22-95.09-0.04
			C1395.13,1543.78,1421.15,1525.52,1447.24,1507.37z"/>
	</g>
	<g id="_x23_ff8a4aff">
		<path fill="#FF8A4A" stroke="#FF8A4A" stroke-width="0.0938" d="M1395.16,453.23c1.34-1.2,2.9399-2.05,4.8199-1.76
			c39.04,0.12,78.09-0.18,117.12,0.13c-4.15,3.52-8.63,6.62-12.89,10c-24.7999,0.09-49.6-0.11-74.39,0.09
			c-5.8199,3.38-10.7799,8.13-16.2899,12.01c-47.1801,35.8-94.22,71.78-141.4501,107.51c-4.62-0.03-9.25-0.01-13.86-0.06
			c16.38-12.58,33.0701-24.77,49.4401-37.37c-10.24-0.1201-20.48-0.02-30.7201-0.08c12.4601-10.91,26.26-20.19,39.2201-30.49
			C1342.5699,493.31,1368.66,472.99,1395.16,453.23z"/>
		<path fill="#FF8A4A" stroke="#FF8A4A" stroke-width="0.0938" d="M942.41,514.67c15.56-2.07,31.03-4.91,46.61-6.88
			c18.39-0.11,36.79-0.06,55.1899-0.03c-0.51,1.27-1.48,2.21-2.5599,3c-9.9601,7.87-19.38,16.38-29.09,24.55
			c-7.4,6.42-14.18,13.53-21.94,19.53c-5.04,4.66-10.26,9.11-15.49,13.56c-14.71,13.54-30.42,25.99-46.52,37.8199
			c-6.17-0.61-12.36-2.54-18.56-1.2599c-12.67,2.15-24.81,6.61-36.79,11.14c-2.56,1.11-5.28-0.14-7.83-0.56
			c-2.47-10.13-5.94-20.0099-10.59-29.35c3.2599-3.51,7.3-6.15,10.8199-9.38c10.22-7.89,19.92-16.42,29.97-24.54l-2.15,0.11
			c7.97-3.91,16.56-6.23,25.1-8.49c-4.17-0.2-8.34-0.18-12.5-0.19c9.59-8.66,19.74-16.69,29.66-24.96
			C937.82,517.21,939.72,515.06,942.41,514.67z"/>
		<path fill="#FF8A4A" stroke="#FF8A4A" stroke-width="0.0938" d="M1030.47,603.31c28.0901-17.68,53.03-39.71,77.6801-61.78
			c11.2,0.18,22.41-0.33,33.6,0.25c-21.97,20.7-45.54,39.89-71.34,55.65c-4.85,2.54-9.61,6.42-15.4,5.97
			C1046.83,603.31,1038.64,603.38,1030.47,603.31z"/>
		<path fill="#FF8A4A" stroke="#FF8A4A" stroke-width="0.0938" d="M269.36,550.39c5.44-2.35,10.56-6.13,16.63-6.53
			c34.27-0.09,68.55,0.09,102.82-0.09c4.45-0.04,8.9,0.11,13.31,0.73c-7.48,3.19-14.76,6.82-21.79,10.89
			c-10.39-4.32-21.38,2.01-28.39,9.53c-3.56,3.25-4.15,8.22-6.08,12.4l0.3-0.76c-12.06,9.11-23.99,18.38-35.76,27.87
			c-19.95,17.33-39.67,34.96-58.57,53.43c-7.43,6.17-13.78,13.5-21.18,19.71c-17.1,16.34-34.67,32.21-52.96,47.22
			c-2.27,2.45-5.73,1.91-8.73,1.94c-29.21-0.1-58.43,0.06-87.64-0.1c0.03-7.41-0.03-14.83,0.03-22.24c6-5.41,12.23-10.58,17.84-16.4
			c12.01-10.57,23.35-21.87,35.09-32.73c27.84-26.29,56.14-52.22,86.98-74.99C236.58,569.22,252.48,558.92,269.36,550.39z"/>
		<path fill="#FF8A4A" stroke="#FF8A4A" stroke-width="0.0938" d="M1592.28,599.36c15.6899-9.81,31.89-19.15,45.61-31.71
			c12.04,0.47,24.08,0.2599,36.12,0.21c1.45,0.11,2.91,0.28,4.39,0.52c-12.34,14.58-28.15,25.66-44.12,35.9
			c-14.48,9.33-29.42,17.95-43.79,27.4399c-0.37,0.45-1.11,1.34-1.48,1.78c-6.37,0.12-12.75-0.28-19.1,0.12
			c-11.76,7.36-23.16,15.35-34.77,22.96c-2.47,0.79-5.1,0.65-7.64,0.62c-12.8199,0.41-25.59-0.68-38.39-0.94
			c-11.7-0.85-23.4399-0.68-35.12-1.79c6.0601-7.12,13.67-12.6899,20.78-18.7c3.39-2.41,6.41-5.43,10.21-7.22
			c10.35,0.2,20.6901,1.17,31.0601,1.13c11.5699-0.05,23.1599,0.12,34.74-0.1C1562.88,617.34,1577.75,608.38,1592.28,599.36z"/>
		<path fill="#FF8A4A" stroke="#FF8A4A" stroke-width="0.0938" d="M471.99,668.98c10.61-9.38,20.93-19.08,31.24-28.79
			c-0.03,2.79-0.09,5.75,1.35,8.27c3.42,6.36,7.68,12.43,13.31,17.02c-16.83,13.98-34.06,27.48-50.78,41.59
			c0.37-11.39,0.89-22.8,2.27-34.12C469.24,671.13,470.83,670.08,471.99,668.98z"/>
		<path fill="#FF8A4A" stroke="#FF8A4A" stroke-width="0.0938" d="M1509.9399,736.79c37.67-25.07,75.3301-50.15,113-75.22
			c8.6801,0.43,17.38,0.14,26.0801,0.17c5.39-0.15,10.78,0.71,16.1699,0.16c7.25-0.3,14.51,0.0099,21.77-0.14
			c5.0801,0.14,10.23-0.41,15.25,0.72c-8.47,4.97-16.3999,10.79-24.63,16.13c-7.2999,4.97-14.84,9.6-22.01,14.73
			c-5.09-0.32-10.2699-1.61-15.2899-0.19c-8.8,2.25-16.37,7.5-23.97,12.23c-15.03,9.96-30.4301,19.49-46.9601,26.78
			c-5,1.91-9.83,5.13-15.4,4.7C1539.28,736.77,1524.61,736.89,1509.9399,736.79z"/>
		<path fill="#FF8A4A" stroke="#FF8A4A" stroke-width="0.0938" d="M333.18,672.06c0.87,8.55,2.37,17.02,3.9,25.48
			c3.76,21.45,7.52,42.9,10.74,64.43c0.21,1.79,0.62,3.61,0.38,5.4301c-17.42,33.69-25.3,71.83-25.45,109.62
			c-14.41,6.58-28.71,13.38-43.24,19.68c14.33,0.32,28.67,0.2,42.99,0.14c-0.27,20.1-1.61,40.16-3.02,60.2
			c-1.36,19.34-3.52,38.63-4.21,58.01c-0.64,14.57,2.16,29.08,6.7,42.8801c-32.69,28.24-65.42,56.4399-98.14,84.6399
			c-8.6-0.5499-17.22-0.0599-25.83-0.2699c-2.13,0.1699-4.73-0.5-6.4,1.22c-21.2,18.88-43.06,36.98-64.35,55.77
			c-7.22,6.38-14.69,12.48-21.85,18.9199c-8.07,6.25-15.25,13.54-23.36,19.73c-0.78-11.96-0.14-23.97-0.36-35.95
			c-0.01-20.3,0.04-40.61-0.03-60.92c-0.01-2.72,0.67-5.36,0.84-8.0499c-1.65-9.9401-0.42-20.05-0.84-30.0701
			c0.17-3.09-0.9-7.08,2.22-9.0299c19.23-14.11,38.47-28.2101,57.65-42.39c6.04-4.27,11.71-9.05,17.94-13.0701
			c11.89-9.13,24.12-17.8099,36.09-26.83c8.11-6.16,16.67-11.72,24.49-18.26c-9.32-0.99-18.7-0.62-28.03-0.19
			c-18.34,0.06-36.68-0.03-55.03,0.04c-2.92,0.01-5.83-0.23-8.74-0.5c5.07-6.65,9.89-13.48,14.75-20.27
			c-6.85-0.11-13.79-0.55-20.6,0.3c-13.5,6.04-26.8,12.6-40.43,18.34c-0.62-18.1801-0.11-36.39-0.27-54.58
			c16.94-8.47,34.47-15.69,51.48-24.02c-17.03-0.65-34.08,0.01-51.12-0.36c-0.87-13.35-0.07-26.76-0.41-40.14
			c0.12-2.91-0.58-6.42,1.78-8.63c25.69-27.61,51.73-54.9,77.81-82.14c20.95-18.4399,42.77-35.86,64.31-53.61
			c7.33-5.37,13.8-11.79,21.22-17.04c14.51-12.06,29.41-23.69,43.91-35.76c2.51-1.39,5.54-0.97,8.31-1.08
			c11.27,0.26,22.56-0.37,33.82,0.44C332.9,673.64,333.09,672.59,333.18,672.06 M313.68,1015.06c-0.02,5.01-0.2,10.09,0.89,15.03
			c0.37-8.36,0.43-16.7599-0.05-25.11C313.53,1008.24,313.72,1011.68,313.68,1015.06z"/>
		<path fill="#FF8A4A" stroke="#FF8A4A" stroke-width="0.0938" d="M1725.0699,773.18c10.2401-10.13,20.7401-20,31.29-29.82
			c27.4301,2.22,54.8101,5.07,82.24,7.33c0,9.97,0.12,19.94-0.0399,29.91c-18.7201,17.86-37.8101,35.34-56.42,53.31
			c-34.47-0.49-68.9501-0.11-103.4301-0.24c-9,13.28-22.1699,22.81-35.11,31.93c-15.27,10.77-31.28,21-43.71,35.17
			c10.36,0.73,20.75,0.19,31.13,0.35c20,0.01,40-0.01,60.01,0.01c1.84-0.12,4.1699,0.17,5.37-1.62c4.34-5.06,9.36-9.47,14.49-13.71
			c4.03-3.99,10.1799-1.52,15.22-2.11c-5.5699,5.62-12.27,10-18.21,15.23c-9.14,7.25-18.23,14.54-27.28,21.89
			c-1.23,1.2-3.0599,0.78-4.5599,0.91c-5.0701,0-10.13-0.21-15.17,0.19c-19.62,0.55-39.21,1.89-58.83,2
			c-17.9,0.72-34.3101,8.9301-49.6001,17.58c-15.5499,8.59-30.97,17.58-47.4099,24.4c-2.64,0.84-5.74,2.56-8.4401,1.29
			c0.1901-3.42,3.21-5.81,5.26-8.28c12.92-13.19,27.3-24.85,41.48-36.66c43.0601-35.35,87.1801-69.39,130.51-104.41
			c16.1-13.15,32.4401-26.09,47.36-40.59c1.0901-1.12,2.5901-1.63,4-2.25C1725.1801,774.54,1725.1,773.63,1725.0699,773.18z"/>
		<path fill="#FF8A4A" stroke="#FF8A4A" stroke-width="0.0938" d="M1767.46,954.21c19.26-13.53,38.5901-26.96,57.87-40.47
			c4.36,1.03,8.89,0.28,13.3401,0.51c-0.27,21.02,0.3099,42.06-0.29,63.07c-10.48-0.15-20.97-0.04-31.45-0.04
			c-1.4801-0.04-2.92-0.27-4.3-0.69c9.62-7.5,19.37-14.83,29.08-22.22C1810.29,954.15,1788.87,954.45,1767.46,954.21z"/>
		<path fill="#FF8A4A" stroke="#FF8A4A" stroke-width="0.0938" d="M1783.6,1015.71c3.09-1.94,5.8101-4.58,9.2001-6
			c15.2-0.18,30.4099,0.06,45.62-0.14c0.4299,17.2599,0.1699,34.55,0.14,51.83c-2.03,1.3099-4.4401,2.28-5.7401,4.4199
			c1.87,0.4401,3.8301,0.4801,5.79,0.51c-0.01,18.8101,0.08,37.62,0,56.4301c-57.26,43.52-114.61,86.9299-171.59,130.83
			c11.3099,0.3101,22.63-0.1,33.95,0.1c2.47-0.2,5.47,0.55,7.4601-1.3899c7.5699-6.7001,15.47-13.0701,22.5099-20.3501
			c5.01-4.96,10.3501-9.6599,14.6001-15.33c31.02-0.34,62.0599,0,93.09-0.17c0.01,9.17,0.04,18.3601-0.04,27.54
			c0.1901,1.42-1.15,2.17-1.95,3.09c-5.47,5.7301-11.02,11.39-16.54,17.0701c-9.88,11.5-20.21,22.62-29.36,34.73
			c-2.23,3.09-5.29,5.41-8.59,7.24c-15.25,9.13-30.0801,19-44.0801,29.9401c-0.7999,0.7-1.5,1.5-2.2,2.2999
			c25.36,1.23,50.78-0.1799,76.15,0.77c4.25-0.23,8.5599-0.58,12.74,0.59c-21.49,17.5701-43.26,34.79-64.9,52.17
			c-4.47,3.47-8.6799,7.28-13.36,10.48c-5.9399,4.85-11.51,10.17-17.85,14.53c-12.9501,10.2899-25.8,20.7-38.6801,31.0699
			c-4.1599,2.54-6.58,6.8401-9.47,10.5901c-20.52,25.3099-44.9301,47.0299-67.5601,70.3899c-6.21,6.12-11.9199,12.7301-17.35,19.55
			c-4.48,5.84-9.2899,11.54-12.5399,18.1899c18.6399,0.4,37.3199-0.5299,55.95,0.5901c23.39,0.52,46.6801,2.99,70.03,4.27
			c1.33,0,2.6699,0.38,3.97,0.7799c-27.11,16.6001-54.8,32.24-82.02,48.67c-22.47,13.24-44.9299,26.51-67.5,39.5699
			c-12.71,8.0801-25.97,15.25-38.84,23.0601c-9.4501,5.63-18.99,11.1-28.47,16.67c-2.9501,1.5399-5.53,4.3899-9.0801,4.25
			c-26.71,0-53.4099-0.01-80.12,0c-12.37-0.15-24.76,0.2999-37.12-0.17c11.99-7.6801,24.41-14.73,36.75-21.87
			c1.54-0.83,2.65-2.1801,3.63-3.58c-10.0699-0.6001-20.1699-0.12-30.24-0.27c-17.67,0.0299-35.35-0.05-53.02,0.0299
			c-5.71-0.12-8.9199,5.41-12.65,8.8701c-31.63-23.27-58.8999-52.01-83.45-82.52c27.5-17.98,56.27-33.9,84.47-50.7201
			c29.78-17.7899,59.37-36.3899,85.3101-59.5699c-27.87-0.23-55.75,0-83.63-0.11c4.65-4.6901,9.2-9.47,13.5-14.49
			c9.9299-11.42,17.58-24.73,28.6799-35.14c2.28-1.95,4.3201-5.21,7.76-4.64c22.6001,0.1901,45.2101-0.17,67.8201,0.1801
			c-10.48,6.1499-20.91,12.38-31.4,18.51c-1,0.5699-2.02,1.1399-2.97,1.7599c29.84,0.53,59.71-0.0199,89.5599,0.25
			c2.17-0.0299,4.4401,0.15,6.52-0.6799c59.0601-35,118.3101-69.6901,177.36-104.71c-19.2999-1.37-38.59-3.02-57.91-3.89
			c-15.34-0.39-30.6899-0.05-46.0199-0.2201c4.33-7.33,9.5599-14.08,15.12-20.5099c21.09-24.2001,46.7799-44.1801,65.97-70.0801
			c5.48-5.54,12.04-9.91,17.99-14.95c31.37-25.1801,62.76-50.3301,94.12-75.53c-24.09-0.17-48.1899,0.04-72.28-0.11
			c12.26-9.83,25.28-18.7001,38.85-26.6c3.3-1.7101,5.2101-5.01,7.51-7.78c7.37-9.17,15.1001-18.05,23.16-26.63
			c11.22-12.13,23.34-23.4,34.33-35.75c-31.6799-0.01-63.35,0.0599-95.0199-0.03c-9.66,10.4401-20.3,19.87-30.9301,29.28
			c-10.74,0.28-21.48-0.22-32.2,0.28c33.77-25.9701,67.74-51.6901,101.62-77.53c6.65,1.53,13.62,1.21,20.22,3.14
			c1.76,0.45,3.54,1.2999,5.4399,1.0499C1770.2,1024.8199,1777.05,1020.48,1783.6,1015.71 M1449.98,1505.64
			c-1.48-0.27-2.4,0.3099-2.74,1.73c-26.09,18.15-52.11,36.41-78.35,54.3199c31.6899,0.26,63.4,0.1801,95.09,0.04
			c11.17-7.24,21.9301-15.21,32.99-22.6899c15.12-10.7201,30.63-20.9401,45.5601-31.9401c-1.29-1.03-2.85-1.6-4.47-1.5499
			C1508.71,1505.83,1479.34,1505.73,1449.98,1505.64z"/>
		<path fill="#FF8A4A" stroke="#FF8A4A" stroke-width="0.0938" d="M412.65,1094.71c14.78-5.2899,28.14-13.85,40.32-23.6499
			c27.31,0.45,54.64,0.0299,81.96,0.21c-19.05,16.38-39.46,31.0699-59.84,45.73c-28.53,20.52-57.07,41.3-82.36,65.8199
			c2.11,0.13,4.21,0.27,6.33,0.3101c28.64,0,57.27-0.04,85.91,0.02c2.79,0.33,4.91-1.6801,7.03-3.13
			c9.56-6.9301,20.35-12.35,31.93-14.86c11.84-2.61,24.06-2.04,36.06-1.15c12.68,1.11,25.37,2.16,38.11,2.28
			c-22.83,16.1-46,32.6-63.72,54.47c1.79,0.04,3.58,0.1,5.37,0.1799c-36.64,25.38-73.55,50.38-110.26,75.65
			c31.45,0.13,62.91,0.13,94.36,0.01c4.28-1.5,7.6-5.01,11.51-7.2899c3.41-1.9501,6.29-5.77,10.62-5.2101
			c27.85,0.0801,55.7-0.0499,83.55,0.0601c-6.57,9.0699-12.6,18.52-18.45,28.0699c0.2,0.37,0.59,1.12,0.79,1.5
			c-43.45,37.97-86.73,76.13-130.21,114.0601c31.74,0.1,63.49,0.02,95.23,0.0399c14.64-12.6799,29.03-25.6499,43.77-38.22
			c21.79,0.17,43.59-0.01,65.39,0.1c1.91,0.04,3.81-0.33,5.59-1.0399c6.72-2.5801,13.54-4.89,20.24-7.54
			c5.65-0.14,11.31-0.05,16.97,0.0699c-28.72,15.01-57.24,30.42-85.71,45.92c-31.9,17.5601-63.75,35.25-94.95,54.04
			c-16.73,10.3199-33.78,20.35-48.86,33.0599c-6.56,3.5901-10.32,10.4401-15.9,15.23c-15.68,13.89-31.51,27.62-47.25,41.4501
			c7.98-2.66,14.98-7.47,22.54-11.0601c5.41-2.39,10.29-5.88,15.92-7.7799c-4.96,18.2599-1.38,37.62,5.61,54.84
			c0.27,1.49,0.51,3.01,0.74,4.5399c-3.18,1.4401-6.39,3.1801-9.97,3.2401c-8.93,0.25-17.88-0.2301-26.81,0.1699
			c-17.71-0.23-35.43-0.02-53.14-0.12c-2.06,0.04-4.35-0.09-6.15,1.0801c-14.6,13.12-29.51,25.8999-44.24,38.8899
			c-3.58,2.7301-6.37,6.64-10.57,8.4701c-9.98,0.0599-19.98,0.1699-29.95-0.0701c-5.04-0.59-10.09,0.3101-15.12-0.1799
			c-6.36-0.5801-12.71,0.4399-19.06-0.01c-18.05-0.8201-36.09,1.0599-54.13,0.12c5.34-6.0901,12.03-10.78,17.8-16.4401
			c8.3-6.63,15.77-14.21,24.03-20.89c7.16-6.5699,14.76-12.63,21.97-19.1399c6.18-5.15,11.73-11.03,18.2-15.8401
			c19.85-17.7899,40-35.26,60.05-52.83c6.77-6.65,14.75-11.9501,21.21-18.9401c0.18-1.84,0.42-3.73,1.46-5.2899
			c6.27-10.86,13.81-20.91,20.41-31.55c-10.31-0.79-20.66-0.1899-30.99-0.38c-24.68-0.01-49.36,0.02-74.03-0.02
			c-1.77-0.0399-3.58,0.15-5.07,1.1801c-7.25,4.6-14.04,9.95-21.36,14.42c-7.78,0.8999-15.69,0.11-23.52,0.3799
			c-22.01,0-44.02,0-66.03,0c-10.03-0.1799-20.07,0.3601-30.08-0.24c16.02-11.61,32.59-22.47,48.88-33.7
			c24.03-16.63,48.33-32.86,72.26-49.62c5.4-4.1,11.47-7.22,16.75-11.48c-1.96-0.23-3.92-0.53-5.77-1.1901
			c22.02-27.25,51.01-47.46,79.19-67.75c-13.74-0.9299-27.53-1.22-41.23-2.77c-18.31-1.2799-37.09-3.0399-55.05,1.8501
			c-15.27,3.8099-29.04,12.0499-41.58,21.3199c-2.4,0.67-4.97,0.33-7.44,0.4301c-10.96-0.0801-21.93,0.12-32.88-0.4501
			c-17.81,0.36-35.66-0.52-53.44,0.4501l-0.43,0.02c-8.76-0.2301-17.51,0.1-26.26-0.16c7.52-6.66,14.36-14.0701,22.34-20.2001
			c6.03-5.3899,11.97-10.9099,18.58-15.61c7.42-6.26,14.99-12.35,22.97-17.89c8.32-6.74,17.2-12.72,25.77-19.12
			c30.12-21.5699,60.33-43.13,88.63-67.09c-3.52-1.6-7.44-0.8199-11.17-0.92c-28.66,0-57.33,0-85.99,0
			c-1.79-0.12-3.98,0.2401-5.22-1.38c-2.57-2.1499-1.01-5.6499,0.28-8.0599c3.96-7.03,9.67-12.83,15.09-18.74
			c7.89-8.73,16.79-16.49,25.03-24.85c27.67-0.05,55.34-0.04,83-0.01c22.93-19.5901,45.67-39.41,68.55-59.0601
			C382.31,1102.76,398.03,1099.97,412.65,1094.71z"/>
		<path fill="#FF8A4A" stroke="#FF8A4A" stroke-width="0.0938" d="M760.77,1608.67c20.72-0.6001,41.44-1.0901,62.18-0.88
			c22.5-0.0801,44.93,2.5599,67.08,6.37c1.41,0.3099,3.0699,0.37,4.2,1.4399c39.02,36.12,78.68,71.5801,119.33,105.87
			c31.41,26.54,63.73,52.0601,97.7401,75.2101c29.35,20.2899,59.75,39.0399,90.8099,56.59c0.74,0.89,1.47,1.8199,2.21,2.79
			c-3.09,2.08-6.33,4.5599-10.2699,4.3799c-36.6801,0.0701-73.37-0.08-110.0601,0.0701c-1.72,0.04-3.26-0.73-4.77-1.35
			c9.04-5.25,18.03-10.5601,27.03-15.88c-8.79,0.08-17.53,1.4099-26.33,1.0599c-34.78-0.38-69.11-8.38-103.9901-6.87
			c-16.19-0.28-32.4,0.12-48.59-0.21c1.52-3.4401,5.17-4.9301,8-7.0701c8.16-5.9299,16.54-11.5499,25.11-16.86
			c5.51-3.12,10.38-7.24,16.02-10.1599c14.23-8.9401,28.45-17.89,42.53-27.0701c3.33-2.0499,6.6899-4.11,9.4-6.97
			c-10.44-0.83-20.94-0.13-31.41-0.36c-16.37-0.0801-32.74,0.12-49.1-0.15c5.24-2.36,10.91-3.59,16.09-6.1
			c17.52-8.37,35.01-17.61,49.41-30.8101c-3.63-1.45-7.57-0.9399-11.37-0.97c-27.01,0.0701-54.02-0.05-81.03,0.08
			c-3.1-0.0499-6.2-0.1699-9.28-0.37c15.59-11.6599,31.33-23.1599,47.02-34.6899c3-2.11,6.19-4.1,8.37-7.11
			c-43.37-0.37-86.7599,0.46-130.11-0.9501c-10.13-0.2899-20.27,0.02-30.36-0.98c-11.71-20.03-23.5-40-35.39-59.9199
			C767.77,1620.74,763.79,1614.96,760.77,1608.67z"/>
		<path fill="#FF8A4A" stroke="#FF8A4A" stroke-width="0.0938" d="M814.56,1700.38c2.51-1.49,5.01-3.77,8.16-3.17
			c18.9301,2.12,37.67,5.7201,56.63,7.6901c10.8,1.51,21.69,2.37,32.48,4.03c-6.29,6.4299-14.11,11.1599-21.27,16.5599
			c-6.15,4.9-12.65,9.3101-18.85,14.14c-9.53,6.75-18.56,14.21-28.29,20.67c-2.1-5.78-4.35-11.5-6.68-17.17
			C830.86,1728.13,822.63,1714.26,814.56,1700.38z"/>
		<path fill="#FF8A4A" stroke="#FF8A4A" stroke-width="0.0938" d="M557.23,1713.25c1.93-2.11,4.16,0.53,5.8,1.6801
			c16.11,16.34,32.56,32.34,49.15,48.1899c-13.06,10.99-27.14,20.71-40.33,31.5601c-7.14,5.1699-14.09,10.6-20.98,16.1
			c-10.46,7.52-20.33,15.8099-30.73,23.4099c-3.88,2.55-7.02,7.3501-12.1,7.16c-26.89-0.0399-53.79,0.02-80.68-0.03
			c-11.83-0.3099-23.72,0.4801-35.52-0.37c5.75-5,11.99-9.4099,18.01-14.08c10.6-7.98,20.8-16.49,31.62-24.16
			c24.31-19.5,49.36-38.09,74.02-57.14C529.19,1734.52,543.37,1724.1,557.23,1713.25z"/>
		<path fill="#FF8A4A" stroke="#FF8A4A" stroke-width="0.0938" d="M1424.62,1765.64c1.9301-1.25,3.83-3.0701,6.3199-2.86
			c38.7401,0.15,77.4901-0.3101,116.2101,0.22c-0.8201,1.53-2.25,2.55-3.63,3.53c-30.54,20.98-60.84,42.34-91.3101,63.4299
			c-13.9099-16.52-28.0699-32.84-42.4299-48.97c-0.85-1.04-1.62-2.14-2.37-3.1899C1412.98,1773.52,1418.9,1769.72,1424.62,1765.64z"
			/>
	</g>
	<g id="_x23_f7c7b1ff">
		<path fill="#F7C7B1" stroke="#F7C7B1" stroke-width="0.0938" d="M570.74,520.72c8.21-3,17.14-1.48,25.35,0.7
			c5.36,1.54,11.54,1.71,15.77,5.8c4.51,4.26,7.19,10.54,6.98,16.77c-0.08,2.87,1.96,5.27,4.14,6.89c6.74,5,16.14,3.94,22.67,9.35
			c2.22,1.62,4.27,5.09,1.99,7.5c-3.08,3.28-8.05,1.35-11.69,3.25c-1.44,1.26-0.14,3.12,0.72,4.26c10.1,11.4,26.75,13.82,36.59,25.5
			c3.72,4.05,6.25,8.98,9.56,13.33c4.08,5.57,12.07,7.1,18.4,5.13c9.47-4.32,16.27-13.21,26.2-16.67
			c5.07-1.6801,8.85,2.84,11.98,6.05c3.67,4.18,9.24,6.89,11.16,12.42c2.56,7.1-1.12,14.56-5.65,19.95
			c-7.31,8.92-17.3199,14.96-27.04,20.88c-4.5,3.06-9.4,6.26-11.91,11.26c-1.52,2.69,0.2599,5.9,2.85,7.1
			c14.49,5.47,28.61,11.97,42.82,18.17c5.69,2.16,9.79,6.92,13.38,11.65c5.22,7.04,9.63,14.68,13.46,22.57
			c-4.24,8.29-7.31,17.21-8.46,26.48c-1.27,8.68-7.09,15.95-13.92,21.11c-10.6201,8.5-24.2401,12.34-34.31,21.62
			c-6.72,5.94-10.76,14.39-12.4,23.12c-1.27,7.05-2.35,14.6801-7.19,20.31c-2.14,2.6-5.92,4.25-9.15,2.7
			c-3.7-1.65-5.6-5.47-7.49-8.81c-6.95-12.12-14.37-23.97-21.66-35.89c11.63,3.5,23.22,7.11,34.85,10.61
			c-5.84-11.47-12.98-22.33-21.58-31.92c-9.08-10.2-16-22.1299-21.61-34.52c9.21-0.41,18.45,0.05,27.68-0.24
			c-5.53-3.38-11.97-6.84-14.37-13.25c-1.55-3.94,0.55-8.1801,3.57-10.7401c3.17-2.7599,6.48-5.55,8.44-9.36
			c1.93-3.54,2.8-8.37,0.17-11.8c-2.05-2.8-6.3-3.04-9.02-1.11c-21.15,15.71-43.2,30.4-66.75,42.28c-7.56,4.07-16.61,6.03-25.02,3.6
			c-6.14-1.69-11.55-5.36-15.96-9.89c-0.54-5.07-1.7599-10.19-4.59-14.5c-1.67-2.83-4.33-5.15-5.03-8.46
			c-0.66-2.7,0.79-5.7,3.28-6.91c5.6-2.92,11.28-5.71,16.89-8.63c0.0099-0.19,0.0099-0.57,0.02-0.76
			c-9.18-3.04-18.42-5.91-27.54-9.13c-3.2-1.1-5.48-3.9-6.67-6.97c-2.17-5.6-2.09-11.75-1.56-17.63c0.2-1.64-0.73-3.1-1.53-4.42
			c-3.31-5.0099-8.45-8.29-13.04-11.97c-4-3.3-2.76-9.23-0.22-13.03c5.98-9.48,14.88-16.56,22.28-24.85
			c2.92-3.22,6.68-7.8,4.21-12.32c-3.05-4.9-8.15-9.05-8.18-15.31c-0.2-14.26,1.13-28.99,7.11-42.12
			C553.66,530.9,561.43,523.8,570.74,520.72 M574.28,537.14c-7.07,5.95-12.54,14.39-13.16,23.79c-0.26,4.23,1.73,8.49,5.49,10.59
			c11.17,6.39,24.46,4.64,36.73,3.93c1.62-3.24,1.99-6.88,2.42-10.43c1.31-9.74,0.53-20.1-4.05-28.94
			c-2.67-3.57-7.46-4.96-11.77-4.92C584.14,530.85,578.72,533.65,574.28,537.14 M564.08,590.06c-2.02,5.53-4.23,10.99-6.3,16.5
			c0.14,0.19,0.41,0.56,0.55,0.74c4.12,0.53,8.27,0.84,12.41,1.23c0.73,5.77,1.12,11.58,1.72,17.37
			c10.94-5.73,21.91-11.41,32.85-17.15c-8.98-4.56-18.65-7.68-27.64-12.23c4.76-2.19,9.54-4.33,14.37-6.36
			C582.73,589.78,573.39,589.87,564.08,590.06 M628.3,609.48c-7.62,1.68-15.33,4.23-21.05,9.78c-7.26,5.73-12.27,14.43-12.81,23.73
			c-0.32,7.05,10.2,9.84,14.32,4.81c3.86-4.26,8.23-8.03,13.21-10.93c5.9301-4.57,13.6801-6.22,21.0601-5.61
			c3.6299,0.07,8.18,0.67,10.81-2.44c2.45-2.45,2.23-6.46,0.7-9.33c-1.63-3.14-3.42-6.49-6.6-8.29
			C642.07,607.58,634.77,608.39,628.3,609.48 M718.54,624.58c-2.34,2.96-0.9,7.13-2.71,10.34c-3.09,6.26-9.26,10.14-15.05,13.62
			c7.1299-0.67,14.23-1.5,21.34-2.38c2.53-0.4,5.51-0.6299,7.19-2.87c1.93-2.37,1.18-5.62,0.62-8.33c-0.88-3.41-1.33-7.31-4.19-9.72
			C723.89,623.44,720.51,622.42,718.54,624.58 M546.71,629.7c-3.63,3.33-7.27,7.23-8.04,12.31c0.36,5.47,9.63,8.31,12.08,2.71
			c3.26-6.3,3.68-13.8,2.98-20.74C550.84,625.13,548.94,627.67,546.71,629.7z"/>
		<path fill="#F7C7B1" stroke="#F7C7B1" stroke-width="0.0938" d="M355.32,605.63c-2.69-4.29-2.13-12.34,3.59-13.69
			c6.09,0.9,10.05,6.44,12.56,11.61c1.97,4.55,4.1,9.74,2.45,14.71c-1.71-2.02-2.99-4.55-5.49-5.72
			C364.22,609.9,357.89,610.59,355.32,605.63z"/>
		<path fill="#F7C7B1" stroke="#F7C7B1" stroke-width="0.0938" d="M351.52,630.36c0.37-3.9,1.63-9.75,6.48-9.95
			c5.87,0.86,8.64,7.3,9.71,12.48c2.26,19.69,6.79,39.15,7.1,59.03c1.08,15.14,11.06,27.64,21,38.33
			c7.64,7.42,13.2,17.2,14.67,27.83c0.66,5.55-0.07,11.95-4.4,15.95c-4.73,4.03-10.84,5.78-16.05,9.02
			c-1.67,1.11-3.62,2.72-3.33,4.97c0.57,3.26,3.25,5.57,5.48,7.81c5.68,4.98,8.66,12.16,11.29,19.06
			c5.74,15.96,8.86,32.68,12.36,49.23c3.7,19.99,10.19,39.45,11.72,59.82c0.27,6.27,1.71,13.01-0.73,19.01
			c-2.25,0.23-2.88-2.53-3.93-3.96c-3.33-5.49-5.14-12.1-9.91-16.57c-2.13,4.23-0.73,9.13-0.53,13.64
			c2.51,17.34-0.52,34.85-4.08,51.81c-5.5,24.91-13.28,49.27-22.06,73.21c-2.18,5.53-4.05,11.2001-6.69,16.53
			c-4.88,4.77-12.82,6.78-19.15,3.77c-6.9-3.22-11.2-9.98-14.48-16.5601c-4.63-10.0199-6.6-21.0299-8.14-31.8899
			c-2.9-22.86-3.08-46.0201-1.45-68.98c1.15-14.54,2.86-29.22,7.79-43.03c5.8-22.11,5.17-45.22,4.97-67.88
			c-0.32-11.68-0.77-23.34-1.09-35.0099c-0.37-12.92,2.13-26.05,8.21-37.52c5.96,0.83,11.92,1.68,17.88,2.59
			c-4.68-4.23-8.35-9.5099-11.22-15.09c-4.66-10.29-6.48-21.56-8.17-32.65c-3.1-20.63-2.91-41.54-3.25-62.34
			C351.54,658.8,351.18,644.57,351.52,630.36 M371.26,816.25c-6.8,15.01-9.4,31.49-10.94,47.78c-3.82,33.27-5.82,66.6899-7.83,100.1
			c-0.34,18.79-0.9,37.83,3,56.32c1.04,3.77,2.26,8.8,6.55,9.9999c4.36-1.6699,6.24-6.4999,7.83-10.53
			c6.54-15.36,7.49-32.25,9.53-48.62c1.62-24.71,2.11-49.47,1.92-74.23c-0.63-6.65,0.34-13.32-0.32-19.97
			c-0.4-11.7-0.62-23.4-0.69-35.11c0.1-8.35-1.46-16.64-1.01-25c0.26-3.08-0.29-6.13-1.52-8.94
			C374.39,809.57,372.81,813.11,371.26,816.25z"/>
		<path fill="#F7C7B1" stroke="#F7C7B1" stroke-width="0.0938" d="M450.08,637.08c4.47-0.74,9.5-0.92,13.57,1.41
			c2.47,1.63,2.5,4.96,1.94,7.57c-1.17,5.41-3.33,10.55-4.52,15.97c-2.15,10.15-8.01,19.34-8.12,29.9399
			c-0.12,13.42-0.84,27-4.62,39.96c-2.09,6.89-4.95,13.95-10.36,18.92c-4.31,4.01-11.04,6.14-16.6,3.62
			c-4.15-2.05-5.88-6.75-6.71-11c-0.95-5.59-1.07-11.4,0.13-16.95c2.22-6,4.08-12.16,6.6-18.02c5.28-6.27,9.63-13.45,11.69-21.44
			c2.14-7.15,1.1-14.68,1.76-22.01c0.56-6.94,1.46-14.13,4.99-20.25C442,640.97,445.72,637.96,450.08,637.08z"/>
		<path fill="#F7C7B1" stroke="#F7C7B1" stroke-width="0.0938" d="M1111.99,698.07c19.9401-2.31,40.0601-1.95,60.0601-0.89
			c39.11,1.8,78.25,4.06,117.09,9.07c12.12,1.8,24.4299,3.32,36.01,7.5c6.75,2.15,10.27,8.82,13.37,14.66
			c7.76,16.17,11.9399,33.73,15.74,51.17c4.75,22.09,7.63,44.54,12.53,66.62c5.46,25.48,11.64,50.83,19.1699,75.79
			c4.79,15.17,9.4501,30.6,17.55,44.41c5.76,10.66,7.63,23.31,4.92,35.15c-5.13,22.25-12.66,43.86-18.16,66.0101
			c-0.91,3.83-1.97,7.6799-1.92,11.6599c2.48-1.8099,3.84-4.6899,6.04-6.7899c5.25-5.4701,11.0699-10.78,18.1799-13.66
			c2.51-1.15,6.4901-0.89,7.0801,2.4199c0.78,7.89,4.4299,15.0801,8.26,21.9c2.64,4.55,5.46,9.04,8.8099,13.12
			c1.27,1.4601,2.65,3.29,4.79,3.3301c-0.23-4.38-1.9301-8.4601-2.85-12.7001c-2.74-11.5-4.99-23.11-6.79-34.7899
			c-0.89-6.29-1.96-12.62-1.6-19c1.91-0.0901,2.26,2.0499,3.03,3.3899c8.2699,19.2301,16.0199,38.67,24.1599,57.9501
			c6.6801,15.08,12.0801,30.92,21.4301,44.64c6.58,9.98,14.17,19.24,21.26,28.86c2.62,3.74,5.75,7.48,6.64,12.09
			c-0.73,2.3201-3.6001,1.77-5.4,1.4401c-5.4301-1.4801-9.72-5.4-13.6801-9.1801c-6.5699-6.52-11.99-14.05-17.7999-21.21
			c-0.99-1.26-2.1901-2.3201-3.61-3.01c-0.4401,4.8099,2.62,8.98,4.84,13c5.75,9.52,13.16,17.9399,21.23,25.5699
			c3.48,3.48,7.04,7.38,8.24,12.3c0.63,1.88-0.37,4.37-2.58,4.48c-4.61,0.0601-8.54-2.89-12.0701-5.5
			c-7.22-6.01-13.3999-13.13-20.1699-19.63c-5.3201-4.91-10.1801-10.79-16.99-13.66c-1.5601,2.1001-0.8,4.6001-0.1001,6.89
			c3.8501,12.1,10.1001,23.22,14.8201,34.98c1.02,2.8601,2.58,6.1901,0.6899,9.0701c-9.3999-0.3-17.21-6.8301-22.76-13.92
			c-17.23-22.5399-28.13-49.03-43.09-73.01c-2.9-4.2999-5.47-9.1-9.67-12.26c-2.4299-1.64-3.37,1.74-3.4199,3.5601
			c-0.5801,10.37,0.76,20.89-1.23,31.17c-0.73,3.25-2.1001,7.5599-5.99,8.0199c-3.91,0.15-7.74-2.0699-9.4401-5.6
			c-3.3099-6.46-4.76-13.65-6.7999-20.5599c-3.51-13.25-7.9-26.3101-9.9-39.91c-3.37-21.5-2.3201-44.23,6.49-64.37
			c3.6899-8.32,4.75-17.61,3.98-26.62c-1.61-18.27-9.17-35.43-18.48-51.01c-20.6-34.95-41.8-69.53-62.47-104.43
			c-10.1801-17.26-20.51-34.46-29.92-52.16c-2.16-3.67-2.79-8.94-7.37-10.49c-8.39-2.87-17.4301-1.21-25.98-0.13
			c-24.91,4.16-49.17,11.39-73.8,16.85c-20.83,4.28-42,7.47-63.2999,7.77c-4.2301-0.27-9.13,0.47-12.66-2.37
			c2.03-2.8,5.4-3.95,8.46-5.2c10.47-4.0099,20.7001-9.36,28.67-17.36c2.2899-2.45,4.75-5.14,5.38-8.55
			c0.2999-2.26-2.51-2.29-3.91-1.47c-15.37,6.52-31.6801,10.54-48.05,13.6c-15.5,2.77-31.24,4.26-46.98,4.15
			c-20.7599,0.35-41.59,2.0601-61.93,6.29c-3.53,1.05-7.78,1.28-10.36,4.2c6.18,2.62,13.46,1.75,19.39,5.25
			c1.05,0.68,1.99,2.92-0.09,2.96c-13.26,2.77-26.59,5.19-39.89,7.75c-6.34,1.21-13.05,2.97-17.78,7.64
			c-2.87,2.72-4.09,7.21-2.31,10.86c2.5,5.43,8.36,8.36,13.94,9.62c15.17,3.28,30.51,5.66,45.86,7.92
			c-0.01,0.15-0.03,0.46-0.04,0.62c-14.19,7.82-28.28,15.84-42.56,23.51c-14.94-7.6201-29.21-17.05-40.61-29.46
			c-6.02-6.62-11.23-14.09-14.51-22.46c-5.73-14.46-9.52-29.67-11.63-45.07c-1.39-11.59-2.52-23.58,0.32-35.03
			c1.02-5.05,5.1-9.02,10.17-9.93c12.13-2.67,24.63-0.34,36.64,1.93c6.66-7.41,15.22-12.86,24.09-17.24
			c14.46-7.01,30.35-10.97,46.4-11.83c29.06-1.62,58.16,1.29,86.96,5.04C1072.0601,704.74,1092.05,700.35,1111.99,698.07
			 M1112.28,710.44c-13,1.31-27.98,4.46-35.88,15.9c-2.17,2.58-1.52,6.3199,0.48,8.78c4.09,4.49,9.22,8.08,15,10.03
			c12.67,4.89,26.39,5.48,39.77,6.39c21.22,1.02,42.41,5.43,63.6799,2.9c11.75-1.63,23.3401-4.82,34.05-9.98
			c5.12-2.6,10.35-5.54,13.9-10.18c2.49-3.01,2.28-8.1801-1.05-10.51c-6.6899-5.64-15.87-6.3-24.1699-7.55
			c-8.01-0.78-16.0701-0.99-24.0701-1.84c-16.05-1.06-31.95-3.61-48.01-4.48C1134.75,709.51,1123.48,709.42,1112.28,710.44
			 M968.28,722.41c-12.63,0.73-25.39,3.78-36.14,10.66c-7.02,4.17-12.65,10.24-19.56,14.58c-9.9,6.35-21.03,10.63-32.37,13.61
			c-1.08,0.53-2.85,0.46-3.25,1.82c-1.7,5.46-0.98,11.33,0.2599,16.81c1.05,4.77,4.2,9.06,8.6801,11.12
			c6.2599,3,13.43,1.33,19.8-0.39c13.07-4.09,26.33-7.52,39.5-11.28c20.64-5.41,41.43-10.64,62.68-13.02
			c7.37-0.97,14.97-0.04,22.17-2.2c6.7-2.47,12.1899-8.7,12.2999-16.07c-0.66-7.19-5.48-13.29-11.3199-17.19
			c-8.85-5.77-19.54-7.87-29.9301-8.57C990.16,721.87,979.2,721.64,968.28,722.41 M1283.08,776.17c-4.37,7.81-4.25,17.54-1.13,25.78
			c5.3301,15.65,14.1801,29.72,21.78,44.32c19.1,34.73,36.42,70.54,58.36,103.63c3.74,5.05,7.01,11.13,13.0601,13.75
			c3.3099-8-1.27-16.26-4.17-23.64c-9.75-20.82-17.91-42.59-21.52-65.37c-2.36-10.74-2.5499-21.79-4.52-32.59
			c-2.7599-18.27-8.6-36.4-19.2599-51.65c-5.0901-6.89-11.17-13.1-18.1901-18.02c-2.66-1.96-4.9-5.24-8.5699-5.08
			C1292.4399,766.82,1286.14,770.5,1283.08,776.17z"/>
		<path fill="#F7C7B1" stroke="#F7C7B1" stroke-width="0.0938" d="M552.12,764.62c12.78-2.02,25.69-3.15,38.59-4.08
			c0.19,9.89,0.97,19.88,3.64,29.44c2.1801,6.63,5.46,12.96,6.38,19.96c-5.59,7.34-10.89,14.9-16.44,22.27
			c-3.29,4.44-8.88,6.42-12.18,10.87c-3.53,4.48-4.54,10.34-4.83,15.9c-0.42,8.74,1.1,17.43,2.93,25.95
			c0.49,2.62,1.33,5.32,0.57,7.99c-3.48-3.64-5.51-8.33-7.98-12.64c-4.99-8.89-9.52-18.11-15.69-26.27
			c-1.8-2.03-3.95-5.22-7.07-4.31c-2.73,1.26-4.3,4.03-6.25,6.19c-5.31,6.71-12,12.3-19.59,16.26
			c-20.68,11.59-41.22,23.53-60.56,37.2599c-6.27,4.3-11.68,9.9901-18.73,13.06c-2.07,1.4301-4.81-1.39-2.52-3.03
			c8.8-10.69,17.82-21.45,23.91-34c14.66-29.89,28.26-61.21,51.25-85.86c8.62-9.38,16.8-19.34,26.97-27.12
			C539.68,768.54,545.69,765.66,552.12,764.62z"/>
		<path fill="#F7C7B1" stroke="#F7C7B1" stroke-width="0.0938" d="M948.98,1136.4399c8.62-1.1499,17.27-2.8899,26.01-2.6499
			c2.82-0.1901,6.48,1.89,4.98,5.2c-3.34,8-9.8199,14.14-14.91,21.03c-10.98,13.0699-18.71,28.54-24.56,44.49
			c-1.23,3.63-2.69,7.3099-2.55,11.22c2.92-1.6799,4.26-4.95,6.32-7.46c10.91-14.38,22.69-28.0601,34.38-41.79
			c2.59-2.85,4.8199-6.03,7.72-8.59c4.62,10.5499,8.74,21.52,9.99,33.0499c0.39,5.6001,1.71,11.66-0.83,16.9601
			c-2.54,4.6799-8.29,5.4299-12.32,8.2999c-7.86,5.3501-14.32,12.4-21.53,18.54c-7.54,6.75-16.22,12.04-25.01,16.96
			c-8.39,4.63-17.04,8.9401-26.21,11.79c-4.04,1.11-8.44,2.3101-12.57,0.99c-2.91-0.87-3.45-4.2-4.75-6.51
			c-1.98-3.7999-4.17-8.02-8.18-9.97c-2.9901-1.27-5.39,1.67-6.53,4.0601c-4.53,9.5499-3.19,21.5299-10.72,29.7
			c-6.3,7.21-16.76,6.29-24.88,10.01c-10.33,5.02-20.61,10.15-30.95,15.14c-5.8-3.9601-11.7-8.4601-18.78-9.7101
			c-3.17-0.7999-6.75,0.9801-7.46,4.29c-1.04,5.3201,0.18,11.28-2.82,16.12c-1.6,3.09-7.03,3.27-8.41-0.0499
			C750.9,1274.47,727.25,1231.47,703.78,1188.37c15.3199,1.39,30.75,2.3101,46.1299,1.28c8.22-0.5601,16.89-1.78,23.6-7
			c6.39-3.97,10.33-12.15,18.53-12.78c19.34-0.35,39.31-1.63,57.2-9.6899c8.68-4.4401,18.22-6.75,27.59-9.27
			C900.64,1144.98,924.75,1140.29,948.98,1136.4399 M886.31,1161.33c-10.87,5.05-21.63,10.51-31.37,17.55
			c-3.56,2.65-7.67,4.66-10.53,8.15c1.44,1.4,2.94,2.77,4.59,3.95c7.96,5.64,15.47,11.89,23.16,17.9
			c8.63,6.67,17.28,13.3,25.84,20.0699c2.17,1.65,4.83,3.54,7.73,2.7201c2.47-1.2201,3.01-4.2301,3.58-6.65
			c1.33-7.62,1.95-15.35,2.81-23.03c1.18-10.4,5.64-20.04,7.54-30.29c0.7-3.83,1.58-7.85,0.4901-11.6899
			c-0.59-3.3-3.7401-5.84-7.06-5.83C903.65,1153.8101,894.84,1157.8199,886.31,1161.33z"/>
		<path fill="#F7C7B1" stroke="#F7C7B1" stroke-width="0.0938" d="M1043.09,1320.85c10.38-3.13,21.49-1.6899,32.01,0.01
			c17.1901,3.3,34.34,8.01,49.9301,16.14c14.61,7.55,27.86,19.71,32.5399,35.92c5.66,19.23,0.8301,39.58-5.5599,57.99
			c-5.9301,14.58-18.4401,25.0699-30.6801,34.34c-30.39,21.8101-65.1799,36.51-100.2499,48.98
			c-45.13,15.64-91.87,26.59-139.19,33.0701c-20.96,2.84-42.08,4.2699-63.04,7.1799c-44.69,6-89.29,14.52-131.93,29.46
			c-9.54,3.3701-18.92,7.2301-28.01,11.67c22.48,1.11,44.9901,6.66,64.71,17.71c14.16,7.88,26.52,19.1001,35.32,32.76
			c10.05,15.52,18.23,32.16,26.2,48.8201c23.64,50.66,44.22,102.7,63.83,155.0399c-35.6,0.03-71.1899-0.0499-106.79,0.01
			c-29.66-25.95-58.73-52.5599-87.36-79.63c-27.57-26.13-54.68-52.7699-80.65-80.49c-15.81-16.96-31.26-34.3099-45.35-52.74
			c-9.81-13.01-19.23-26.6799-24.54-42.22c-4.04-11.61-4.96-24.61-0.87-36.34c4.43-13.17,13.74-23.99,23.74-33.3401
			c14.5699-13.4399,31.19-24.36,47.83-35.0199c17.35-10.89,35.03-21.2301,52.75-31.51c14.17-8.16,28.21-16.5701,42.54-24.4601
			c37.42-19.9399,77.27-34.95,117.66-47.6499c40.82-12.79,82.37-23.16,124.2-32.05c39.74-8.3199,79.74-15.49,120-20.78
			C1032.14,1327.4,1037.28,1322.4399,1043.09,1320.85 M1064.42,1340.49c-10.2101,5.52-21.3101,9.08-32.37,12.4301
			c-19.4,5.73-39.1801,9.9399-59.0001,13.89c-20.64,3.86-41.41,7.09-61.96,11.4299c-44.63,9.0601-88.76,20.61-132.01,34.89
			c-18.9,5.86-37.41,12.88-55.78,20.2c-7.7,2.5801-14.89,6.39-22.4,9.4601c-11.53,5.35-23.27,10.2899-34.35,16.5399
			c-14.61,6.6801-28.56,14.6801-42.38,22.8401c-17.7,11.0499-34.63,23.6899-48.51,39.36c-5.45,7.1-10.78,14.37-14.74,22.4399
			c-2.26,4.77-4.66,9.65-4.94,15.03c-0.93,6.21-0.83,13.41,3.84,18.21c4.5,4.0601,11.23,3.3401,16.37,0.9401
			c5.6-2.8101,10.47-6.8301,15.5-10.53c8.27-5.84,16.66-11.58,25.66-16.26c17.3-8.83,35.73-15.37,54.66-19.73
			c8.73-3.29,18.02-4.5601,27.04-6.8c35.17-7.48,70.79-12.6699,105.94-20.26c43.1-9.08,85.47-21.3899,127.58-34.21
			c21.04-7.47,42.44-13.86,63.57-21.03c20.88-7.33,41.95-14.11,62.92-21.1699c15.1299-5.28,30.37-11.78,42.22-22.87
			c4.95-5.1801,9.12-11.91,8.9099-19.3201c-0.47-8.7999-5.3799-16.71-11.4399-22.8199c-8.41-9.17-18.91-16.11-29.6801-22.1801
			C1067.67,1340.14,1065.91,1339.77,1064.42,1340.49 M646.62,1618.5699c-9.33,1.53-16.53,7.9801-24.45,12.5701
			c-8.14,4.99-13.12,14.34-12.96,23.86c0.14,9.34,3.27,18.59,8.39,26.38c4.61,8.41,11.16,15.49,16.96,23.0699
			c13.34,14.3301,28.29,27.02,42.24,40.74c6.16,5.8301,13.06,10.8601,18.69,17.26c4.82,5.63,11.09,9.64,16.59,14.55
			c7.87,6.8,15.74,13.73,24.68,19.12c3.1,2.01,6.96,1.74,10.45,1.23c2.66-7.78-0.23-15.8099-2.41-23.2999
			c-2.4-8.88-6.5-17.1801-9.11-25.9701c-13.05-34.89-25.58-70.25-44.02-102.76c-5.43-8.5599-11.15-17.3899-19.54-23.35
			C664.44,1617.71,655.17,1616.29,646.62,1618.5699z"/>
	</g>
	<g id="_x23_f6e8e5ff">
		<path fill="#F6E8E5" stroke="#F6E8E5" stroke-width="0.0938" d="M574.28,537.14c4.4399-3.49,9.86-6.29,15.66-5.98
			c4.31-0.04,9.1,1.35,11.77,4.92c4.58,8.84,5.36,19.2,4.05,28.94c-0.43,3.55-0.8,7.19-2.42,10.43
			c-12.27,0.71-25.56,2.46-36.73-3.93c-3.76-2.1-5.75-6.36-5.49-10.59C561.74,551.53,567.21,543.09,574.28,537.14z"/>
		<path fill="#F6E8E5" stroke="#F6E8E5" stroke-width="0.0938" d="M628.3,609.48c6.47-1.09,13.77-1.9,19.64,1.72
			c3.18,1.8,4.97,5.15,6.6,8.29c1.53,2.87,1.75,6.88-0.7,9.33c-2.63,3.11-7.1801,2.51-10.81,2.44
			c-7.38-0.61-15.13,1.04-21.0601,5.61c-4.98,2.9-9.35,6.67-13.21,10.93c-4.12,5.03-14.64,2.24-14.32-4.81
			c0.54-9.3,5.55-18,12.81-23.73C612.97,613.71,620.68,611.16,628.3,609.48z"/>
		<path fill="#F6E8E5" stroke="#F6E8E5" stroke-width="0.0938" d="M1112.28,710.44c11.2-1.02,22.47-0.93,33.7-0.54
			c16.0601,0.87,31.96,3.42,48.01,4.48c8,0.85,16.0601,1.06,24.0701,1.84c8.2999,1.25,17.48,1.91,24.1699,7.55
			c3.3301,2.33,3.54,7.5,1.05,10.51c-3.55,4.64-8.78,7.58-13.9,10.18c-10.71,5.16-22.3,8.35-34.05,9.98
			c-21.2699,2.53-42.46-1.88-63.6799-2.9c-13.38-0.91-27.1-1.5-39.77-6.39c-5.78-1.95-10.91-5.54-15-10.03
			c-2-2.46-2.65-6.2-0.48-8.78C1084.3,714.9,1099.28,711.75,1112.28,710.44z"/>
		<path fill="#F6E8E5" stroke="#F6E8E5" stroke-width="0.0938" d="M968.28,722.41c10.92-0.77,21.8799-0.54,32.8199-0.12
			c10.39,0.7,21.08,2.8,29.9301,8.57c5.84,3.9,10.6599,10,11.3199,17.19c-0.11,7.37-5.6,13.6-12.2999,16.07
			c-7.2001,2.16-14.8,1.23-22.17,2.2c-21.25,2.38-42.04,7.61-62.68,13.02c-13.17,3.7599-26.43,7.19-39.5,11.28
			c-6.37,1.72-13.54,3.39-19.8,0.39c-4.48-2.06-7.63-6.35-8.6801-11.12c-1.24-5.48-1.96-11.35-0.2599-16.81
			c0.4-1.36,2.17-1.29,3.25-1.82c11.34-2.98,22.47-7.26,32.37-13.61c6.91-4.34,12.54-10.41,19.56-14.58
			C942.89,726.19,955.65,723.14,968.28,722.41z"/>
		<path fill="#F6E8E5" stroke="#F6E8E5" stroke-width="0.0938" d="M1283.08,776.17c3.0601-5.67,9.36-9.35,15.8401-8.87
			c3.6699-0.16,5.9099,3.12,8.5699,5.08c7.02,4.92,13.1,11.13,18.1901,18.02c10.6599,15.25,16.5,33.38,19.2599,51.65
			c1.9701,10.8,2.16,21.85,4.52,32.59c3.61,22.78,11.77,44.55,21.52,65.37c2.9,7.38,7.48,15.64,4.17,23.64
			c-6.05-2.62-9.3201-8.7-13.0601-13.75c-21.9399-33.09-39.26-68.9-58.36-103.63c-7.6-14.6-16.45-28.67-21.78-44.32
			C1278.83,793.71,1278.71,783.98,1283.08,776.17z"/>
		<path fill="#F6E8E5" stroke="#F6E8E5" stroke-width="0.0938" d="M371.26,816.25c1.55-3.14,3.13-6.68,6.52-8.2
			c1.23,2.81,1.78,5.86,1.52,8.94c-0.45,8.36,1.11,16.65,1.01,25c0.07,11.71,0.29,23.41,0.69,35.11c0.66,6.65-0.31,13.32,0.32,19.97
			c0.19,24.76-0.3,49.52-1.92,74.23c-2.04,16.37-2.99,33.26-9.53,48.62c-1.59,4.03-3.47,8.86-7.83,10.53
			c-4.29-1.2-5.51-6.23-6.55-9.9999c-3.9-18.49-3.34-37.53-3-56.32c2.01-33.41,4.01-66.83,7.83-100.1
			C361.86,847.74,364.46,831.26,371.26,816.25z"/>
		<path fill="#F6E8E5" stroke="#F6E8E5" stroke-width="0.0938" d="M886.31,1161.33c8.53-3.51,17.34-7.5199,26.78-7.1499
			c3.3199-0.01,6.47,2.5299,7.06,5.83c1.09,3.84,0.21,7.86-0.4901,11.6899c-1.9,10.25-6.36,19.89-7.54,30.29
			c-0.86,7.6801-1.48,15.41-2.81,23.03c-0.57,2.4199-1.11,5.4299-3.58,6.65c-2.9,0.8199-5.56-1.0701-7.73-2.7201
			c-8.56-6.7699-17.21-13.3999-25.84-20.0699c-7.69-6.01-15.2-12.26-23.16-17.9c-1.65-1.1799-3.15-2.5499-4.59-3.95
			c2.86-3.49,6.97-5.5,10.53-8.15C864.68,1171.84,875.44,1166.38,886.31,1161.33z"/>
		<path fill="#F6E8E5" stroke="#F6E8E5" stroke-width="0.0938" d="M1064.42,1340.49c1.49-0.72,3.25-0.35,4.6499,0.48
			c10.77,6.0701,21.27,13.01,29.6801,22.1801c6.0601,6.11,10.97,14.02,11.4399,22.8199c0.2101,7.41-3.96,14.14-8.9099,19.3201
			c-11.85,11.09-27.0901,17.59-42.22,22.87c-20.9701,7.0599-42.04,13.84-62.92,21.1699c-21.13,7.17-42.53,13.5601-63.57,21.03
			c-42.11,12.8201-84.48,25.13-127.58,34.21c-35.15,7.5901-70.77,12.78-105.94,20.26c-9.02,2.24-18.31,3.51-27.04,6.8
			c-18.93,4.36-37.36,10.9-54.66,19.73c-9,4.6801-17.39,10.42-25.66,16.26c-5.03,3.7-9.9,7.72-15.5,10.53
			c-5.14,2.4-11.87,3.12-16.37-0.9401c-4.67-4.7999-4.77-12-3.84-18.21c0.28-5.38,2.68-10.26,4.94-15.03
			c3.96-8.0699,9.29-15.34,14.74-22.4399c13.88-15.67,30.81-28.3101,48.51-39.36c13.82-8.16,27.77-16.16,42.38-22.8401
			c11.08-6.25,22.82-11.1899,34.35-16.5399c7.5099-3.0701,14.7-6.88,22.4-9.4601c18.37-7.3199,36.88-14.34,55.78-20.2
			c43.25-14.28,87.38-25.83,132.01-34.89c20.55-4.34,41.3199-7.5699,61.96-11.4299c19.82-3.9501,39.6-8.16,59.0001-13.89
			C1043.11,1349.5699,1054.21,1346.01,1064.42,1340.49z"/>
		<path fill="#F6E8E5" stroke="#F6E8E5" stroke-width="0.0938" d="M646.62,1618.5699c8.55-2.2799,17.82-0.86,25.51,3.4
			c8.39,5.9601,14.11,14.79,19.54,23.35c18.44,32.51,30.97,67.87,44.02,102.76c2.61,8.79,6.71,17.0901,9.11,25.9701
			c2.18,7.49,5.07,15.5199,2.41,23.2999c-3.4901,0.51-7.35,0.78-10.45-1.23c-8.94-5.39-16.81-12.3199-24.68-19.12
			c-5.5-4.91-11.77-8.92-16.59-14.55c-5.63-6.3999-12.53-11.4299-18.69-17.26c-13.95-13.72-28.9-26.4099-42.24-40.74
			c-5.8-7.58-12.35-14.6599-16.96-23.0699c-5.12-7.79-8.25-17.04-8.39-26.38c-0.16-9.52,4.82-18.87,12.96-23.86
			C630.09,1626.55,637.29,1620.1,646.62,1618.5699z"/>
	</g>
	<g id="_x23_f9c0a6ff">
		<path fill="#F9C0A6" stroke="#F9C0A6" stroke-width="0.0938" d="M822.67,534.31c6.88-0.13,13.78-0.37,20.66,0.13
			c-5.98,2.93-12.53,4.53-18.47,7.56c-0.12,0.47-0.36,1.42-0.48,1.9C824.14,540.65,823.6,537.43,822.67,534.31z"/>
	</g>
	<g id="_x23_fffdfdff">
		<path fill="#FFFDFD" stroke="#FFFDFD" stroke-width="0.0938" d="M854.28,576.33c12.36-9.05,25.3-17.44,39.2-23.95l2.15-0.11
			c-10.05,8.12-19.75,16.65-29.97,24.54C861.85,576.75,858.06,576.61,854.28,576.33z"/>
	</g>
	<g id="_x23_f6c7b1ff">
		<path fill="#F6C7B1" stroke="#F6C7B1" stroke-width="0.0938" d="M359.93,577.92c0.99-4.49,6.47-7.98,10.8-5.64
			c7.01,4.04,10.24,12.89,8.86,20.66c-0.46,2.04-0.88,4.57-3.19,5.25c-2.75-6.77-6.44-14.88-14.37-16.54
			C360.28,581.42,359.68,579.43,359.93,577.92z"/>
		<path fill="#F6C7B1" stroke="#F6C7B1" stroke-width="0.0938" d="M1527.5,657.2c2.54,0.03,5.17,0.17,7.64-0.62
			c-5.02,3.26-9.92,6.73-15.02,9.87c1.36-3.41,4.96-5.13,7.4-7.7C1527.51,658.36,1527.5,657.59,1527.5,657.2z"/>
	</g>
	<g id="_x23_fefffeff">
		<path fill="#FEFFFE" stroke="#FEFFFE" stroke-width="0.0938" d="M310.4,604.43c11.77-9.49,23.7-18.76,35.76-27.87l-0.3,0.76
			c-3.75,9.44-6.88,19.13-9.11,29.04c-8.5-0.58-17.16,0.59-25.58-0.65C310.98,605.39,310.59,604.75,310.4,604.43z"/>
	</g>
	<g id="_x23_fcbda8ff">
		<path fill="#FCBDA8" stroke="#FCBDA8" stroke-width="0.0938" d="M850.9,578.9c1.11-0.87,2.23-1.73,3.38-2.57
			c3.78,0.28,7.5699,0.42,11.3799,0.48c-3.52,3.23-7.56,5.87-10.8199,9.38C853.61,583.71,852.27,581.29,850.9,578.9z"/>
	</g>
	<g id="_x23_010000ff">
		<path fill="#010000" stroke="#010000" stroke-width="0.0938" d="M564.08,590.06c9.31-0.19,18.65-0.28,27.96,0.1
			c-4.83,2.03-9.61,4.17-14.37,6.36c8.99,4.55,18.66,7.67,27.64,12.23c-10.94,5.74-21.91,11.42-32.85,17.15
			c-0.6-5.79-0.9901-11.6-1.72-17.37c-4.14-0.39-8.29-0.7-12.41-1.23c-0.14-0.18-0.41-0.55-0.55-0.74
			C559.85,601.05,562.06,595.59,564.08,590.06z"/>
		<path fill="#010000" stroke="#010000" stroke-width="0.0938" d="M718.54,624.58c1.97-2.16,5.35-1.14,7.2,0.66
			c2.86,2.41,3.31,6.31,4.19,9.72c0.56,2.71,1.31,5.96-0.62,8.33c-1.68,2.2401-4.66,2.47-7.19,2.87
			c-7.11,0.88-14.21,1.71-21.34,2.38c5.79-3.48,11.96-7.36,15.05-13.62C717.64,631.71,716.2,627.54,718.54,624.58z"/>
	</g>
	<g id="_x23_fc8b4dff">
		<path fill="#FC8B4D" stroke="#FC8B4D" stroke-width="0.0938" d="M1279.35,623.62c8.14-6.91,16.13-14,24.34-20.83
			c4.4,0.02,8.8201,0,13.2301,0.32c-0.4701,1.07-1.14,2.04-2.14,2.65c-7.92,5.67-15.38,11.99-23.41,17.48
			C1287.39,623.82,1283.33,623.06,1279.35,623.62z"/>
	</g>
	<g id="_x23_f7e8e4ff">
		<path fill="#F7E8E4" stroke="#F7E8E4" stroke-width="0.0938" d="M546.71,629.7c2.23-2.03,4.13-4.57,7.02-5.72
			c0.7,6.94,0.28,14.44-2.98,20.74c-2.45,5.6-11.72,2.76-12.08-2.71C539.44,636.93,543.08,633.03,546.71,629.7z"/>
	</g>
	<g id="_x23_fffff6ff">
		<path fill="#FFFFF6" stroke="#FFFFF6" stroke-width="0.0938" d="M323.69,634.98c2.96-2.28,6.12-4.26,9.39-6.07
			c-0.22,2.14-0.4,4.3-0.56,6.46C329.57,635.29,326.63,635.17,323.69,634.98z"/>
	</g>
	<g id="_x23_fffefeff">
		<path fill="#FFFEFE" stroke="#FFFEFE" stroke-width="0.0938" d="M1236.27,647.33c3.83-4.49,7.5599-9.07,11.37-13.58
			c4.78,2.94,10.63,3.33,15.47,6.15c1.16,0.45,1.46,1.66,1.9,2.71l-0.1901-0.07c-0.48-0.16-1.4399-0.48-1.9199-0.64
			c-3.38,0.17-6.73,0.55-10.1,0.7c-1.74,1.84-3.51,3.63-5.26,5.45c-3.3-0.3-6.62-0.19-9.9-0.44c-0.23-0.05-0.6901-0.14-0.92-0.18
			L1236.27,647.33z"/>
	</g>
	<g id="_x23_fe8a4bff">
		<path fill="#FE8A4B" stroke="#FE8A4B" stroke-width="0.0938" d="M1252.8,642.6c3.37-0.15,6.72-0.53,10.1-0.7
			c0.48,0.16,1.4399,0.48,1.9199,0.64c-5.1799,5.97-10.9299,11.4-16.2899,17.19c-3.53,1.36-7.37,1.16-10.8101-0.35
			c2.73-4.22,6.5601-7.54,9.8201-11.33C1249.29,646.23,1251.0601,644.44,1252.8,642.6z"/>
	</g>
	<g id="_x23_fbbfa3ff">
		<path fill="#FBBFA3" stroke="#FBBFA3" stroke-width="0.0938" d="M1234.42,649.55c0.74-0.65,1.1899-2.13,2.2999-2.12
			c0.23,0.04,0.6901,0.13,0.92,0.18c3.28,0.25,6.6,0.14,9.9,0.44c-3.26,3.79-7.0901,7.11-9.8201,11.33
			c3.4401,1.51,7.28,1.71,10.8101,0.35c-1.26,1.11-2.9401,1.48-4.5601,1.41c-6.2999-0.64-12.61,0.41-18.9099-0.42
			C1228.27,657.07,1231.3101,653.28,1234.42,649.55z"/>
	</g>
	<g id="_x23_fabea4ff">
		<path fill="#FABEA4" stroke="#FABEA4" stroke-width="0.0938" d="M94.95,689.94c1.27-0.92,2.69-1.62,4.24-1.95
			c-5.61,5.82-11.84,10.99-17.84,16.4c-0.02-2.07-0.02-4.13-0.02-6.19C85.79,695.31,90.57,692.97,94.95,689.94z"/>
	</g>
	<g id="_x23_c9c9c9ff">
		<path fill="#C9C9C9" stroke="#C9C9C9" stroke-width="0.0938" d="M876.18,896.19c0.88-2.48,3.92-0.6,5.5,0.2
			c8.78,5.09,17.03,11.01,25.73,16.23c6.72,4.35,14.4301,11.01,12.82,19.96c-10.75-4.72-22.77-5.92-34.36-4.49
			c-7.89,1-16.11,2.6-23.9,0.21c-1.9-0.49-3.34-1.82-4.64-3.18c1.3-5.1,7.52-5.42,11.79-6.29c4.52-1.03,10.25-0.46,13.54-4.22
			C882.23,907.97,877.23,902.69,876.18,896.19z"/>
		<path fill="#C9C9C9" stroke="#C9C9C9" stroke-width="0.0938" d="M916.62,961.57c4.96-4.84,9.02-10.61,14.42-14.99
			c-7.47,19.96-12.95,40.6-17.17,61.47c-3.1,13.59-4.36,27.61-8.96,40.83c-3,8.39-6.58,16.79-12.44,23.61
			c-3.18,3.58-7.77,8-12.96,5.99c-2.7-4.3099-0.77-9.53,1.07-13.77c3.7-7.97,7.95-15.8999,9.49-24.6499
			c0.51-2.2301,0.16-4.4901-0.6-6.5901c-5.05-1.7-9.7,1.7101-13.77,4.26c-5.14,3.5601-10.26,8-16.74,8.63
			c-2.71,0.1901-5.15-1.78-5.76-4.37c-0.9-3.77,0.22-7.65,1.55-11.17c3.85-9.66,10.66-17.8099,18.12-24.9
			C887.95,991.64,902.41,976.72,916.62,961.57z"/>
	</g>
	<g id="_x23_fcbea3ff">
		<path fill="#FCBEA3" stroke="#FCBEA3" stroke-width="0.0938" d="M81.17,912.07l0.88,0.06c17.04,0.37,34.09-0.29,51.12,0.36
			c-17.01,8.33-34.54,15.55-51.48,24.02l-0.18-1.08C80.97,927.66,81.71,919.84,81.17,912.07z"/>
	</g>
	<g id="_x23_fb8e50ff">
		<path fill="#FB8E50" stroke="#FB8E50" stroke-width="0.0938" d="M1719.34,914.5c3.3401-0.74,6.8101,0.05,10.2101-0.35
			c-5.5,3.66-10.76,7.7-16.3301,11.24l-1.4099-0.3C1714.04,921.37,1717.0601,918.2,1719.34,914.5z"/>
	</g>
	<g id="_x23_c25419ff">
		<path fill="#C25419" stroke="#C25419" stroke-width="0.0938" d="M530.45,928.66c7.82-1.92,15.56-4.3799,23.58-5.3199
			c-14.59,19.93-29.33,39.75-44.37,59.34c-12.75,16.2-25.28,32.62-39.23,47.82c-3.54,3.41-6.68,7.65-11.42,9.4301
			c-2.98,1.1399-6.12-0.6901-7.61-3.26c-4.07-6.4301-4.02-14.35-4.51-21.67c0.43-15.42,3.59-31.16,11.56-44.53
			c5.21-9.22,13.66-16.03,22.55-21.5099C496.29,939.62,513.33,933.65,530.45,928.66z"/>
		<path fill="#C25419" stroke="#C25419" stroke-width="0.0938" d="M952.25,1593.21c3.43-1.1,6.82-2.47,10.43-2.87
			c4.73,6.5601,8.22,13.9,11.95,21.0601c9.58,19.36,18.75,38.96,26.75,59.03c1.42,4.5,3.95,8.8099,3.94,13.6499
			c-6.77-1.73-11.44-7.5-16.68-11.74c-23.17-21.83-44.92-45.13-66.45-68.5599C932.14,1600.05,942.18,1596.58,952.25,1593.21z"/>
		<path fill="#C25419" stroke="#C25419" stroke-width="0.0938" d="M1299.27,1714.88c0.35-3.36,3.1-6.9301,6.79-6.42
			c4.49,0.36,8.3099,3.1901,11.98,5.5901c13.0499,9.8199,23.86,22.2,34.59,34.4199c19.55,22.63,37.54,46.54,55.1899,70.67
			c6.05,8.4,12.2201,16.71,17.9701,25.3199c-28.63-0.45-57.24-1.75-85.87-2.4099c-30.3301-1.01-60.67-1.8501-91-2.8301
			c-1.9301-6.4099-5.61-12.1699-10.42-16.77c0.13-4.11,3.22-7.38,5.28-10.72c16.73-23.11,35.5499-45.12,47.5-71.27
			C1295.1,1732.35,1297.85,1723.74,1299.27,1714.88z"/>
	</g>
	<g id="_x23_ea905fff">
		<path fill="#EA905F" stroke="#EA905F" stroke-width="0.0938" d="M313.68,1015.06c0.04-3.38-0.15-6.82,0.84-10.08
			c0.48,8.35,0.42,16.75,0.05,25.11C313.48,1025.15,313.66,1020.07,313.68,1015.06z"/>
	</g>
	<g id="_x23_300300ff">
		<path fill="#300300" stroke="#300300" stroke-width="0.0938" d="M1636.54,1103.16c10.72-0.5,21.46,0,32.2-0.28
			c-0.4399,0.27-1.3099,0.8199-1.75,1.09c-4.64,0.5901-9.33-0.0599-13.98,0.14C1647.52,1103.99,1641.86,1104.91,1636.54,1103.16z"/>
	</g>
	<g id="_x23_290000ff">
		<path fill="#290000" stroke="#290000" stroke-width="0.0938" d="M707.82,1313.0601c1.64-1.7201,4.13-1.28,6.27-1.27
			c5.97,0.3199,11.95,0.35,17.93,0.08c3.21-0.03,6.66-0.5,9.61,1.13C730.36,1313.25,719.09,1313.14,707.82,1313.0601z"/>
	</g>
	<g id="_x23_ff8b4bff">
		<path fill="#FF8B4B" stroke="#FF8B4B" stroke-width="0.0938" d="M659.91,1355.11c15.92-14.0699,31.98-27.99,47.91-42.0499
			c11.27,0.08,22.54,0.1899,33.81-0.0601c-19.17,10.1899-38.56,19.95-57.8,30.02C675.81,1346.95,668.09,1351.5,659.91,1355.11z"/>
	</g>
	<g id="_x23_380c02ff">
		<path fill="#380C02" stroke="#380C02" stroke-width="0.0938" d="M711.88,1381.13c3.18-1.45,6.73-1.26,10.14-1.37
			c2.47,0.01,5.2-0.3,7.32,1.26L728.85,1381.2C723.19,1381.08,717.53,1380.99,711.88,1381.13z"/>
	</g>
	<g id="_x23_f7bfacff">
		<path fill="#F7BFAC" stroke="#F7BFAC" stroke-width="0.0938" d="M81.31,1396.98c2.61-0.5599,5.28-0.53,7.92-0.2
			c-1.63,3.49-4.37,6.75-7.93,8.36C81.24,1402.41,81.27,1399.6899,81.31,1396.98z"/>
	</g>
	<g id="_x23_3e0700ff">
		<path fill="#3E0700" stroke="#3E0700" stroke-width="0.0938" d="M1400.41,1460.8199c0.95-0.62,1.97-1.1899,2.97-1.7599
			c5.4,1.47,11.03,0.8899,16.5699,0.97c15.3401,0.03,30.6801-0.02,46.03,0.01c10.17,0.1499,20.36-0.37,30.51,0.35
			c-2.08,0.83-4.35,0.65-6.52,0.6799C1460.12,1460.8,1430.25,1461.35,1400.41,1460.8199z"/>
	</g>
	<g id="_x23_e69265ff">
		<path fill="#E69265" stroke="#E69265" stroke-width="0.0938" d="M1449.98,1505.64c29.36,0.09,58.73,0.1899,88.0801-0.09
			c1.62-0.05,3.1799,0.5199,4.47,1.5499c-31.76,0.38-63.54-0.15-95.29,0.27C1447.58,1505.95,1448.5,1505.37,1449.98,1505.64z"/>
	</g>
	<g id="_x23_fdbea2ff">
		<path fill="#FDBEA2" stroke="#FDBEA2" stroke-width="0.0938" d="M483.43,1529.45c5.58-4.7899,9.34-11.6399,15.9-15.23
			c-11.43,10.04-20.51,23.11-24.69,37.8401c-5.63,1.8999-10.51,5.3899-15.92,7.7799c-7.56,3.5901-14.56,8.4-22.54,11.0601
			C451.92,1557.0699,467.75,1543.34,483.43,1529.45z"/>
	</g>
	<g id="_x23_fffefdff">
		<path fill="#FFFEFD" stroke="#FFFEFD" stroke-width="0.0938" d="M860.74,1817.21c10.86,0.4301,21.76-0.4299,32.6,0.4501
			c-9.36,6.2-18.73,12.38-27.82,18.97C863.98,1830.14,862.39,1823.67,860.74,1817.21z"/>
	</g>
	<g id="_x23_fcc0a8ff">
		<path fill="#FCC0A8" stroke="#FCC0A8" stroke-width="0.0938" d="M1202.11,1853.27c4.59,2.3199,8.9401,5.35,13.8201,6.98
			c17.97,0.13,35.95-0.64,53.9199-0.6899l-0.09,1.0499c-23.27,0.3201-46.54-0.5-69.79,0.41c-5.33,0.48-10.6699,0.1799-15.99,0.24
			c-31,0.01-61.99-0.01-92.98,0c-4.83-0.02-9.67,0.29-14.47-0.25c0.75-0.7,1.51-1.37,2.2999-2.02l0.39,0.17
			c1.51,0.62,3.05,1.39,4.77,1.35c36.6901-0.15,73.38,0,110.0601-0.0701c3.9399,0.1801,7.1799-2.2999,10.2699-4.3799
			C1203.58,1855.09,1202.85,1854.16,1202.11,1853.27z"/>
	</g>
</g>
</svg>
